<?xml version="1.0" encoding="UTF-8" standalone="no"?>
<!DOCTYPE svg PUBLIC "-//W3C//DTD SVG 1.1//EN" "http://www.w3.org/Graphics/SVG/1.1/DTD/svg11.dtd">
<svg xmlns="http://www.w3.org/2000/svg" version="1.1" viewBox="0.00 0.00 150.00 150.00">
<g stroke-width="1.80" fill="none" stroke-linecap="butt">
<path stroke="#0e0e0e" vector-effect="non-scaling-stroke" d="
  M 31.02 39.70
  Q 31.23 40.12 31.05 40.46
  Q 30.96 40.63 30.78 40.58
  Q 30.64 40.55 30.51 40.53"
/>
<path stroke="#4c4c4c" vector-effect="non-scaling-stroke" d="
  M 82.72 27.54
  Q 82.52 27.86 82.82 27.90"
/>
<path stroke="#787778" vector-effect="non-scaling-stroke" d="
  M 134.00 62.81
  Q 133.03 62.87 132.80 62.62"
/>
<path stroke="#4f4e4d" stroke-opacity="0.592" vector-effect="non-scaling-stroke" d="
  M 129.87 63.36
  Q 130.07 63.67 129.59 63.43"
/>
<path stroke="#4f4e4d" stroke-opacity="0.592" vector-effect="non-scaling-stroke" d="
  M 135.68 64.95
  Q 135.74 65.32 135.99 65.25"
/>
<path stroke="#8b8b8c" vector-effect="non-scaling-stroke" d="
  M 132.72 85.13
  L 131.02 85.35"
/>
<path stroke="#4d4d4e" vector-effect="non-scaling-stroke" d="
  M 100.22 57.00
  Q 100.01 56.46 100.54 55.97
  Q 102.14 54.51 103.03 53.17
  Q 103.32 52.74 103.85 52.68
  Q 107.66 52.24 107.66 48.45
  A 1.65 1.65 0.0 0 0 105.11 47.08
  L 104.06 47.77
  Q 103.35 48.23 102.99 47.47
  C 102.00 45.40 101.99 43.90 100.09 42.01"
/>
<path stroke="#808080" vector-effect="non-scaling-stroke" d="
  M 100.09 42.01
  Q 98.73 39.59 96.05 38.29
  Q 95.52 38.03 95.13 38.47
  Q 91.86 42.02 87.33 42.69
  Q 86.59 42.80 87.02 43.41
  Q 88.04 44.90 88.53 46.58
  Q 88.73 47.28 89.46 47.26
  L 91.49 47.21
  Q 92.14 47.19 92.28 46.55
  C 93.07 43.07 95.76 40.63 99.26 42.55"
/>
<path stroke="#2b2a2a" vector-effect="non-scaling-stroke" d="
  M 99.26 42.55
  Q 99.48 42.89 98.79 43.03"
/>
<path stroke="#808080" vector-effect="non-scaling-stroke" d="
  M 98.79 43.03
  Q 95.56 42.14 94.07 44.06
  Q 91.48 47.42 94.57 50.98"
/>
<path stroke="#2b2a2a" vector-effect="non-scaling-stroke" d="
  M 94.57 50.98
  L 93.90 51.28"
/>
<path stroke="#808080" vector-effect="non-scaling-stroke" d="
  M 93.90 51.28
  L 92.37 48.55
  A 1.25 1.25 0.0 0 0 91.38 47.90
  Q 90.42 47.82 89.42 48.06
  Q 88.97 48.16 88.92 48.62
  L 88.88 48.96"
/>
<path stroke="#0a0a0a" vector-effect="non-scaling-stroke" d="
  M 88.88 48.96
  L 88.72 49.20
  Q 88.61 49.38 88.46 49.22
  L 88.18 48.93"
/>
<path stroke="#808080" vector-effect="non-scaling-stroke" d="
  M 88.18 48.93
  Q 88.02 46.75 87.03 44.72
  C 86.33 43.28 85.30 43.08 83.84 43.28
  A 1.18 1.17 84.0 0 0 82.83 44.53
  L 83.05 47.30"
/>
<path stroke="#2b2a2a" vector-effect="non-scaling-stroke" d="
  M 83.05 47.30
  Q 83.23 47.74 82.99 48.02"
/>
<path stroke="#060606" stroke-opacity="0.592" vector-effect="non-scaling-stroke" d="
  M 82.99 48.02
  Q 82.10 47.00 80.50 46.83"
/>
<path stroke="#c7c7c8" vector-effect="non-scaling-stroke" d="
  M 100.09 42.01
  Q 100.24 42.65 99.70 42.74"
/>
<path stroke="#a5a4a4" vector-effect="non-scaling-stroke" d="
  M 99.70 42.74
  Q 99.52 42.80 99.26 42.55"
/>
<path stroke="#515151" vector-effect="non-scaling-stroke" d="
  M 99.84 57.18
  L 97.89 57.81"
/>
<path stroke="#c7c7c8" vector-effect="non-scaling-stroke" d="
  M 97.89 57.81
  Q 99.54 54.33 99.48 51.29"
/>
<path stroke="#727172" vector-effect="non-scaling-stroke" d="
  M 99.48 51.29
  Q 100.32 49.89 100.70 48.03
  Q 100.82 47.44 101.31 47.09
  L 101.75 46.78
  Q 102.42 46.29 101.64 46.02
  Q 100.59 45.66 100.63 44.60
  Q 100.64 44.07 100.33 43.63
  L 99.70 42.74"
/>
<path stroke="#a5a4a4" vector-effect="non-scaling-stroke" d="
  M 99.48 51.29
  Q 96.44 53.46 93.90 51.28"
/>
<path stroke="#a5a4a4" vector-effect="non-scaling-stroke" d="
  M 94.57 50.98
  Q 96.11 51.71 97.56 51.22
  C 100.66 50.17 99.95 45.16 98.79 43.03"
/>
<path stroke="#888888" vector-effect="non-scaling-stroke" d="
  M 95.81 44.57
  Q 95.42 44.56 95.51 44.94
  L 96.34 48.36
  A 0.48 0.46 7.4 0 0 96.59 48.67
  Q 96.92 48.82 97.07 48.57
  Q 97.18 48.38 97.15 48.14
  Q 96.93 46.47 96.39 44.73
  Q 96.34 44.59 96.19 44.58
  L 95.81 44.57"
/>
<path stroke="#848484" vector-effect="non-scaling-stroke" d="
  M 88.18 48.93
  Q 87.73 50.81 86.30 52.02
  A 1.09 1.08 -29.4 0 1 84.57 51.54
  Q 84.47 51.26 84.03 50.65"
/>
<path stroke="#a5a4a4" vector-effect="non-scaling-stroke" d="
  M 84.03 50.65
  Q 83.82 48.88 83.05 47.30"
/>
<path stroke="#a5a4a4" vector-effect="non-scaling-stroke" d="
  M 85.39 45.91
  Q 85.42 45.46 85.24 45.05
  Q 85.10 44.74 84.81 44.90
  L 84.54 45.06
  Q 84.42 45.12 84.44 45.26
  L 84.90 48.71
  Q 84.99 49.37 85.66 49.31
  L 86.00 49.29
  Q 86.21 49.27 86.25 49.07
  Q 86.46 47.92 85.73 47.01
  Q 85.34 46.53 85.39 45.91"
/>
<path stroke="#454343" stroke-opacity="0.592" vector-effect="non-scaling-stroke" d="
  M 82.99 48.02
  L 83.65 50.72"
/>
<path stroke="#0c0c0c" stroke-opacity="0.592" vector-effect="non-scaling-stroke" d="
  M 83.65 50.72
  Q 83.83 51.35 83.69 51.71
  Q 83.51 52.20 83.01 52.03
  Q 82.59 51.89 82.16 51.90"
/>
<path stroke="#2f2d2e" vector-effect="non-scaling-stroke" d="
  M 84.03 50.65
  Q 83.84 50.69 83.65 50.72"
/>
<path stroke="#848484" vector-effect="non-scaling-stroke" d="
  M 97.89 57.81
  Q 96.26 59.53 94.07 59.83
  Q 92.15 60.10 90.15 58.91
  Q 87.23 57.16 85.35 53.96
  A 0.55 0.55 0.0 0 1 85.67 53.15
  Q 87.61 52.58 88.80 49.97"
/>
<path stroke="#969695" vector-effect="non-scaling-stroke" d="
  M 88.80 49.97
  Q 89.42 51.47 88.07 52.91
  Q 87.60 53.41 88.24 53.64
  Q 89.76 54.18 91.50 53.65
  Q 91.74 53.58 91.78 53.33
  Q 91.78 53.28 91.77 53.23
  Q 91.68 52.99 91.43 53.01
  Q 90.76 53.07 90.13 53.00
  Q 89.60 52.93 89.60 52.40
  Q 89.58 51.20 90.05 50.27
  Q 90.29 49.77 89.75 49.68
  L 88.97 49.54"
/>
<path stroke="#848484" vector-effect="non-scaling-stroke" d="
  M 88.97 49.54
  Q 88.83 49.26 88.88 48.96"
/>
<path stroke="#abaaaa" vector-effect="non-scaling-stroke" d="
  M 93.50 54.86
  Q 92.20 55.36 91.45 56.40
  Q 90.82 57.28 91.85 56.93
  Q 93.14 56.50 94.11 55.53
  Q 94.15 55.49 94.13 55.44
  L 93.92 55.02
  Q 93.79 54.74 93.50 54.86"
/>
<path stroke="#1f1f1e" vector-effect="non-scaling-stroke" d="
  M 88.97 49.54
  Q 88.34 50.34 88.80 49.97"
/>
<path stroke="#1f1f1e" vector-effect="non-scaling-stroke" d="
  M 99.83 62.74
  Q 99.79 62.86 99.74 62.98"
/>
<path stroke="#3b3b3b" vector-effect="non-scaling-stroke" d="
  M 99.74 62.98
  Q 99.12 61.89 99.27 60.65
  Q 99.54 58.40 98.03 60.08
  Q 97.26 60.94 96.04 61.60"
/>
<path stroke="#848484" vector-effect="non-scaling-stroke" d="
  M 96.04 61.60
  L 94.60 62.55"
/>
<path stroke="#3b3b3b" vector-effect="non-scaling-stroke" d="
  M 94.60 62.55
  Q 94.69 64.00 92.81 63.68"
/>
<path stroke="#4d4d4c" vector-effect="non-scaling-stroke" d="
  M 99.74 62.98
  Q 99.83 63.43 100.01 63.70
  Q 100.29 64.14 100.77 63.94
  Q 101.58 63.62 102.75 63.78"
/>
<path stroke="#636262" vector-effect="non-scaling-stroke" d="
  M 103.47 64.00
  L 102.88 64.32"
/>
<path stroke="#b2b2b2" vector-effect="non-scaling-stroke" d="
  M 102.88 64.32
  Q 102.49 64.31 101.86 64.07
  A 0.55 0.54 38.7 0 0 101.37 64.12
  Q 100.91 64.43 101.14 64.86
  A 0.59 0.58 46.2 0 1 101.13 65.47
  C 99.41 68.28 94.86 70.05 94.14 65.17
  A 0.74 0.73 80.6 0 0 93.28 64.55
  L 80.06 66.98"
/>
<path stroke="#4d4d4c" vector-effect="non-scaling-stroke" d="
  M 80.06 66.98
  Q 80.36 66.94 80.26 66.37"
/>
<path stroke="#b2b2b2" vector-effect="non-scaling-stroke" d="
  M 94.60 62.55
  L 95.98 66.45
  Q 96.17 66.99 96.73 67.12
  Q 97.32 67.26 97.80 66.86
  Q 98.28 66.47 98.11 65.87
  Q 97.38 63.32 96.04 61.60"
/>
<path stroke="#abaaaa" vector-effect="non-scaling-stroke" d="
  M 102.88 64.32
  L 109.45 67.23"
/>
<path stroke="#bebebe" vector-effect="non-scaling-stroke" d="
  M 109.45 67.23
  Q 110.94 68.05 111.45 69.01
  Q 116.59 78.82 116.52 90.18"
/>
<path stroke="#929292" vector-effect="non-scaling-stroke" d="
  M 116.52 90.18
  Q 113.50 89.93 110.29 90.87
  Q 108.84 91.29 108.86 89.79
  Q 108.88 87.55 110.33 85.24
  Q 110.57 84.87 110.34 84.50
  L 108.77 81.93
  Q 108.43 81.38 108.10 81.94
  Q 107.97 82.16 107.90 82.54"
/>
<path stroke="#b7b7b7" vector-effect="non-scaling-stroke" d="
  M 107.90 82.54
  Q 106.41 85.89 104.80 89.25
  Q 103.50 91.96 98.75 95.98"
/>
<path stroke="#b2b2b2" vector-effect="non-scaling-stroke" d="
  M 98.75 95.98
  L 92.58 98.70"
/>
<path stroke="#888888" vector-effect="non-scaling-stroke" d="
  M 92.58 98.70
  L 91.46 99.31"
/>
<path stroke="#abaaaa" vector-effect="non-scaling-stroke" d="
  M 91.46 99.31
  Q 91.14 99.33 90.93 99.48
  Q 90.55 99.74 90.74 100.16
  Q 90.99 100.73 90.41 101.01
  C 88.51 101.89 87.17 101.03 85.29 100.96
  Q 82.11 100.84 78.96 100.62"
/>
<path stroke="#888888" vector-effect="non-scaling-stroke" d="
  M 78.96 100.62
  Q 78.46 100.60 78.08 100.42
  Q 77.58 100.20 77.64 99.67
  L 78.15 95.26"
/>
<path stroke="#969695" vector-effect="non-scaling-stroke" d="
  M 78.15 95.26
  L 81.06 73.34
  Q 81.13 72.79 80.61 72.96
  Q 80.39 73.02 80.29 73.24
  Q 77.32 80.13 75.70 86.17
  A 0.92 0.92 0.0 0 1 74.49 86.79
  Q 70.34 85.28 66.68 85.68
  Q 66.00 85.75 66.23 85.11
  Q 70.42 73.53 80.06 66.98"
/>
<path stroke="#6f6e6e" vector-effect="non-scaling-stroke" d="
  M 111.07 67.20
  L 109.45 67.23"
/>
<path stroke="#232322" vector-effect="non-scaling-stroke" d="
  M 78.15 95.26
  Q 78.03 94.66 77.68 94.82"
/>
<path stroke="#232322" vector-effect="non-scaling-stroke" d="
  M 77.76 89.01
  Q 78.37 88.18 76.75 87.85
  Q 76.19 87.73 75.68 88.24"
/>
<path stroke="#525251" vector-effect="non-scaling-stroke" d="
  M 75.68 88.24
  Q 75.42 87.67 74.76 87.64
  Q 66.16 87.24 57.62 84.85"
/>
<path stroke="#5a5a59" vector-effect="non-scaling-stroke" d="
  M 116.21 72.75
  Q 116.24 72.51 115.99 72.64
  Q 115.80 72.74 115.88 72.94
  L 117.47 76.46"
/>
<path stroke="#565656" vector-effect="non-scaling-stroke" d="
  M 117.47 76.46
  Q 118.63 79.12 118.65 81.87
  Q 118.65 82.04 118.73 82.19
  L 118.94 82.56
  Q 119.13 82.90 119.11 83.30
  Q 119.00 86.14 118.99 89.01
  Q 118.98 91.04 116.52 90.18"
/>
<path stroke="#2d2d2c" vector-effect="non-scaling-stroke" d="
  M 117.57 75.19
  Q 117.21 75.67 117.47 76.46"
/>
<path stroke="#929292" vector-effect="non-scaling-stroke" d="
  M 150.00 108.72
  Q 132.78 106.68 115.53 105.11
  Q 115.41 105.10 110.27 104.43
  Q 106.42 103.94 102.47 104.30"
/>
<path stroke="#434242" vector-effect="non-scaling-stroke" d="
  M 102.47 104.30
  L 97.23 103.59"
/>
<path stroke="#929292" vector-effect="non-scaling-stroke" d="
  M 97.23 103.59
  Q 99.26 102.72 100.05 101.76"
/>
<path stroke="#565656" vector-effect="non-scaling-stroke" d="
  M 100.05 101.76
  Q 100.99 101.63 100.96 102.73
  Q 100.95 103.36 101.57 103.37
  Q 103.73 103.42 105.57 102.08
  Q 105.94 101.81 106.37 101.99
  Q 109.05 103.11 111.81 103.36
  Q 116.05 103.75 117.14 99.30
  Q 117.83 96.46 118.10 92.60
  Q 118.13 92.15 117.77 91.88
  Q 115.57 90.20 112.70 91.21"
/>
<path stroke="#929292" vector-effect="non-scaling-stroke" d="
  M 112.70 91.21
  L 109.57 91.57
  Q 109.08 91.62 108.98 92.11
  Q 108.42 94.80 108.98 97.18"
/>
<path stroke="#565656" vector-effect="non-scaling-stroke" d="
  M 108.98 97.18
  Q 109.22 97.45 108.21 97.56"
/>
<path stroke="#929292" vector-effect="non-scaling-stroke" d="
  M 108.21 97.56
  Q 107.33 97.22 106.77 97.40"
/>
<path stroke="#494949" vector-effect="non-scaling-stroke" d="
  M 106.77 97.40
  L 100.25 97.26
  Q 99.90 97.25 99.86 96.90
  Q 99.83 96.70 100.00 96.59
  Q 100.31 96.41 101.04 96.43"
/>
<path stroke="#4e4e4e" vector-effect="non-scaling-stroke" d="
  M 101.04 96.43
  L 104.38 96.33
  A 1.61 1.61 0.0 0 0 105.92 94.97
  Q 106.10 93.88 106.93 93.12
  Q 107.36 92.73 107.49 92.16
  Q 108.31 88.48 108.86 85.01
  Q 109.11 83.41 107.90 82.54"
/>
<path stroke="#393838" vector-effect="non-scaling-stroke" d="
  M 37.29 81.96
  L 33.17 82.24"
/>
<path stroke="#888888" vector-effect="non-scaling-stroke" d="
  M 33.17 82.24
  L 24.74 81.21
  A 0.80 0.79 -0.3 0 0 23.85 82.10
  L 25.16 92.01"
/>
<path stroke="#444444" vector-effect="non-scaling-stroke" d="
  M 25.16 92.01
  Q 25.24 93.50 24.73 93.56"
/>
<path stroke="#abaaaa" vector-effect="non-scaling-stroke" d="
  M 33.17 82.24
  L 40.18 83.34"
/>
<path stroke="#b7b7b7" vector-effect="non-scaling-stroke" d="
  M 40.18 83.34
  Q 41.84 83.36 43.43 83.72
  Q 45.28 84.14 46.61 84.19
  Q 49.71 84.32 52.82 84.95
  Q 54.41 85.28 55.97 86.53
  C 61.69 91.13 64.09 97.02 60.12 103.71"
/>
<path stroke="#dfdedf" vector-effect="non-scaling-stroke" d="
  M 60.12 103.71
  L 55.99 108.83"
/>
<path stroke="#b7b7b7" vector-effect="non-scaling-stroke" d="
  M 55.99 108.83
  Q 54.50 110.52 52.50 111.54"
/>
<path stroke="#dfdedf" vector-effect="non-scaling-stroke" d="
  M 52.50 111.54
  Q 49.53 112.51 47.24 114.28"
/>
<path stroke="#b7b7b7" vector-effect="non-scaling-stroke" d="
  M 47.24 114.28
  L 38.86 116.63"
/>
<path stroke="#888888" vector-effect="non-scaling-stroke" d="
  M 38.86 116.63
  L 28.65 114.88"
/>
<path stroke="#b7b7b7" vector-effect="non-scaling-stroke" d="
  M 28.65 114.88
  L 25.16 92.01"
/>
<path stroke="#808080" vector-effect="non-scaling-stroke" d="
  M 44.94 100.91
  Q 45.34 102.50 46.53 103.53"
/>
<path stroke="#bebebe" vector-effect="non-scaling-stroke" d="
  M 46.53 103.53
  Q 46.66 103.81 46.83 104.00
  Q 47.06 104.28 47.43 104.34
  Q 49.26 104.65 50.73 105.20
  Q 51.37 105.44 51.68 104.82
  Q 52.66 102.85 52.08 101.40"
/>
<path stroke="#808080" vector-effect="non-scaling-stroke" d="
  M 52.08 101.40
  Q 53.84 97.81 50.10 96.20"
/>
<path stroke="#abaaaa" vector-effect="non-scaling-stroke" d="
  M 50.10 96.20
  Q 48.11 95.25 46.58 96.09
  Q 44.25 97.37 44.94 100.91"
/>
<path stroke="#313030" vector-effect="non-scaling-stroke" d="
  M 50.10 96.20
  Q 47.06 97.05 44.94 100.91"
/>
<path stroke="#444444" vector-effect="non-scaling-stroke" d="
  M 52.08 101.40
  C 51.32 100.51 50.45 99.69 49.25 100.21
  Q 47.31 101.06 47.47 102.97
  Q 47.50 103.29 47.26 103.50
  Q 47.01 103.71 46.53 103.53"
/>
<path stroke="#686767" vector-effect="non-scaling-stroke" d="
  M 44.54 82.97
  L 40.18 83.34"
/>
<path stroke="#6e6e6e" vector-effect="non-scaling-stroke" d="
  M 101.04 96.43
  L 98.75 95.98"
/>
<path stroke="#444444" vector-effect="non-scaling-stroke" d="
  M 75.68 88.24
  L 75.82 104.20"
/>
<path stroke="#9b9a9c" vector-effect="non-scaling-stroke" d="
  M 75.82 104.20
  Q 74.91 105.72 75.89 107.07"
/>
<path stroke="#444444" vector-effect="non-scaling-stroke" d="
  M 75.89 107.07
  L 75.43 115.52"
/>
<path stroke="#525251" vector-effect="non-scaling-stroke" d="
  M 75.43 115.52
  Q 74.24 117.63 74.56 119.84
  A 0.82 0.82 0.0 0 1 73.66 120.78
  L 55.42 118.88"
/>
<path stroke="#444444" vector-effect="non-scaling-stroke" d="
  M 55.42 118.88
  L 38.86 116.63"
/>
<path stroke="#9b9a9c" vector-effect="non-scaling-stroke" d="
  M 47.24 114.28
  Q 50.24 114.05 52.50 111.54"
/>
<path stroke="#9b9a9c" vector-effect="non-scaling-stroke" d="
  M 55.99 108.83
  Q 59.22 107.06 60.12 103.71"
/>
<path stroke="#393838" vector-effect="non-scaling-stroke" d="
  M 78.96 100.62
  Q 79.34 100.90 78.75 101.57"
/>
<path stroke="#888888" vector-effect="non-scaling-stroke" d="
  M 78.75 101.57
  Q 78.12 101.36 77.46 101.40
  Q 76.86 101.43 76.86 102.03
  Q 76.89 104.27 76.97 106.30
  Q 76.98 106.50 77.10 106.66
  Q 77.29 106.90 77.53 106.74"
/>
<path stroke="#3f3f3f" vector-effect="non-scaling-stroke" d="
  M 77.53 106.74
  Q 77.28 107.56 77.52 107.70"
/>
<path stroke="#888888" vector-effect="non-scaling-stroke" d="
  M 77.52 107.70
  Q 76.88 107.84 76.98 108.61
  Q 77.05 109.12 77.41 109.19
  Q 77.75 109.25 78.27 109.04"
/>
<path stroke="#3f3f3f" vector-effect="non-scaling-stroke" d="
  M 78.27 109.04
  L 78.55 109.42"
/>
<path stroke="#888888" vector-effect="non-scaling-stroke" d="
  M 78.55 109.42
  L 77.30 110.22
  A 0.47 0.45 76.9 0 0 77.09 110.57
  Q 77.02 111.32 77.76 111.27"
/>
<path stroke="#3f3f3f" vector-effect="non-scaling-stroke" d="
  M 77.76 111.27
  Q 77.78 111.52 77.43 111.94"
/>
<path stroke="#6c6b6d" vector-effect="non-scaling-stroke" d="
  M 77.43 111.94
  Q 76.91 112.33 77.21 113.04"
/>
<path stroke="#3f3f3f" vector-effect="non-scaling-stroke" d="
  M 77.21 113.04
  Q 77.04 113.81 77.38 113.97"
/>
<path stroke="#888888" vector-effect="non-scaling-stroke" d="
  M 77.38 113.97
  Q 77.12 114.87 77.89 116.00"
/>
<path stroke="#333132" vector-effect="non-scaling-stroke" d="
  M 77.89 116.00
  Q 77.59 116.33 77.37 117.21"
/>
<path stroke="#888888" vector-effect="non-scaling-stroke" d="
  M 77.37 117.21
  Q 77.17 117.55 77.91 118.96"
/>
<path stroke="#3f3f3f" vector-effect="non-scaling-stroke" d="
  M 77.91 118.96
  Q 77.56 119.65 77.58 120.28"
/>
<path stroke="#888888" vector-effect="non-scaling-stroke" d="
  M 77.58 120.28
  Q 77.19 121.63 78.26 121.89
  Q 78.95 122.05 79.61 121.46"
/>
<path stroke="#3f3f3f" vector-effect="non-scaling-stroke" d="
  M 79.61 121.46
  Q 80.40 120.85 81.16 120.94"
/>
<path stroke="#888888" vector-effect="non-scaling-stroke" d="
  M 81.16 120.94
  L 101.97 113.32
  Q 102.48 113.13 102.03 112.83
  Q 101.72 112.62 101.39 112.79
  A 0.67 0.66 38.5 0 1 100.93 112.84
  L 87.26 109.53"
/>
<path stroke="#3f3f3f" vector-effect="non-scaling-stroke" d="
  M 87.26 109.53
  Q 87.23 108.91 87.51 108.68"
/>
<path stroke="#888888" vector-effect="non-scaling-stroke" d="
  M 87.51 108.68
  C 92.10 109.76 96.56 111.03 101.23 111.79
  Q 102.99 112.07 104.55 113.01
  Q 104.96 113.26 104.51 114.21"
/>
<path stroke="#444444" vector-effect="non-scaling-stroke" d="
  M 104.51 114.21
  Q 100.15 115.54 98.30 117.03"
/>
<path stroke="#1f1f1f" vector-effect="non-scaling-stroke" d="
  M 98.30 117.03
  Q 87.50 120.20 78.05 123.52
  C 76.89 123.93 75.88 123.55 74.69 123.60
  Q 73.53 123.65 72.27 123.40
  Q 64.40 121.86 56.48 120.57
  Q 55.35 120.38 54.01 120.56
  C 51.83 120.85 49.99 120.09 48.20 120.57"
/>
<path stroke="#444444" vector-effect="non-scaling-stroke" d="
  M 48.20 120.57
  Q 43.63 117.76 37.41 117.54"
/>
<path stroke="#888888" vector-effect="non-scaling-stroke" d="
  M 37.41 117.54
  L 27.88 115.73"
/>
<path stroke="#444444" vector-effect="non-scaling-stroke" d="
  M 27.88 115.73
  Q 27.92 115.28 28.13 115.13
  Q 28.40 114.92 28.65 114.88"
/>
<path stroke="#232322" vector-effect="non-scaling-stroke" d="
  M 55.42 118.88
  L 75.13 122.65
  Q 75.73 122.76 75.70 122.16
  L 75.43 115.52"
/>
<path stroke="#6c6b6d" vector-effect="non-scaling-stroke" d="
  M 75.89 107.07
  L 75.82 104.20"
/>
<path stroke="#bebebe" vector-effect="non-scaling-stroke" d="
  M 100.05 101.76
  Q 99.86 101.31 99.96 100.98"
/>
<path stroke="#6f6e6e" vector-effect="non-scaling-stroke" d="
  M 99.96 100.98
  Q 100.39 100.53 100.24 100.88"
/>
<path stroke="#bebebe" vector-effect="non-scaling-stroke" d="
  M 100.24 100.88
  C 102.92 99.41 104.63 98.54 107.75 98.37
  Q 108.13 98.35 108.17 97.98
  L 108.21 97.56"
/>
<path stroke="#bebebe" vector-effect="non-scaling-stroke" d="
  M 108.98 97.18
  L 113.27 99.92
  A 0.43 0.43 0.0 0 0 113.93 99.50
  L 112.70 91.21"
/>
<path stroke="#b7b7b7" vector-effect="non-scaling-stroke" d="
  M 27.88 115.73
  Q 26.62 114.62 26.59 112.23
  Q 26.55 109.33 25.84 106.14
  Q 25.39 104.13 25.60 102.05
  A 0.71 0.71 0.0 0 0 24.53 101.37
  L 22.00 102.88"
/>
<path stroke="#686767" vector-effect="non-scaling-stroke" d="
  M 22.00 102.88
  Q 21.21 102.47 20.55 102.70"
/>
<path stroke="#b2b2b2" vector-effect="non-scaling-stroke" d="
  M 106.77 97.40
  L 98.64 97.86
  Q 98.10 97.89 97.84 98.36
  L 97.49 99.00"
/>
<path stroke="#3f3f3f" vector-effect="non-scaling-stroke" d="
  M 97.49 99.00
  Q 97.11 99.24 97.02 99.02"
/>
<path stroke="#969597" vector-effect="non-scaling-stroke" d="
  M 97.02 99.02
  Q 97.29 98.22 96.79 98.29
  Q 94.53 98.57 92.78 99.64"
/>
<path stroke="#3f3f3f" vector-effect="non-scaling-stroke" d="
  M 92.78 99.64
  L 92.58 98.70"
/>
<path stroke="#abaaaa" vector-effect="non-scaling-stroke" d="
  M 100.24 100.88
  Q 99.53 100.12 98.75 100.13
  Q 98.21 100.14 97.59 100.83
  Q 96.88 101.63 96.52 101.79
  Q 95.52 102.24 95.11 101.54"
/>
<path stroke="#888888" vector-effect="non-scaling-stroke" d="
  M 95.11 101.54
  Q 95.88 100.49 97.03 99.80
  Q 97.55 99.48 97.49 99.00"
/>
<path stroke="#6c6b6d" vector-effect="non-scaling-stroke" d="
  M 97.02 99.02
  Q 94.73 100.61 92.78 99.64"
/>
<path stroke="#393838" vector-effect="non-scaling-stroke" d="
  M 95.11 101.54
  L 92.19 100.80
  Q 91.74 100.69 91.65 100.24
  L 91.46 99.31"
/>
<path stroke="#abaaaa" vector-effect="non-scaling-stroke" d="
  M 99.96 100.98
  Q 97.01 100.71 97.23 103.59"
/>
<path stroke="#abaaaa" vector-effect="non-scaling-stroke" d="
  M 102.47 104.30
  Q 102.12 104.62 101.59 104.81"
/>
<path stroke="#908e8f" vector-effect="non-scaling-stroke" d="
  M 101.59 104.81
  Q 100.32 104.91 99.68 104.38
  Q 99.29 104.05 98.79 104.12
  L 97.62 104.27"
/>
<path stroke="#abaaaa" vector-effect="non-scaling-stroke" d="
  M 97.62 104.27
  C 93.16 102.57 89.65 103.25 85.40 102.34
  C 83.20 101.88 80.99 102.03 78.75 101.57"
/>
<path stroke="#bebebe" vector-effect="non-scaling-stroke" d="
  M 50.65 103.52
  Q 51.36 103.77 51.22 103.03
  Q 51.03 101.96 49.84 102.10
  A 0.40 0.40 0.0 0 0 49.56 102.73
  Q 49.95 103.27 50.65 103.52"
/>
<path stroke="#b7b7b7" vector-effect="non-scaling-stroke" d="
  M 37.41 117.54
  Q 44.03 121.75 52.43 125.30
  Q 67.78 131.79 83.54 130.18
  Q 90.94 129.42 96.49 126.25
  Q 102.81 122.63 107.14 117.33
  Q 107.47 116.92 107.02 116.64
  Q 104.41 115.04 104.51 114.21"
/>
<path stroke="#b2b2b2" vector-effect="non-scaling-stroke" d="
  M 87.51 108.68
  Q 84.02 107.72 80.51 106.84
  Q 78.91 106.44 77.53 106.74"
/>
<path stroke="#dfdedf" vector-effect="non-scaling-stroke" d="
  M 97.62 104.27
  Q 99.97 105.88 101.59 104.81"
/>
<path stroke="#7f7f7f" vector-effect="non-scaling-stroke" d="
  M 150.00 119.98
  L 132.32 138.68"
/>
<path stroke="#bebebe" vector-effect="non-scaling-stroke" d="
  M 132.32 138.68
  L 123.79 138.35"
/>
<path stroke="#7f7f7f" vector-effect="non-scaling-stroke" d="
  M 123.79 138.35
  L 99.98 135.19"
/>
<path stroke="#b7b7b7" vector-effect="non-scaling-stroke" d="
  M 99.98 135.19
  Q 98.39 134.30 96.81 134.39"
/>
<path stroke="#bebebe" vector-effect="non-scaling-stroke" d="
  M 96.81 134.39
  Q 94.92 134.47 93.23 133.96"
/>
<path stroke="#c7c7c8" vector-effect="non-scaling-stroke" d="
  M 93.23 133.96
  Q 91.26 133.16 89.22 133.43
  Q 88.26 133.56 86.25 132.83
  Q 84.89 132.33 83.03 132.90"
/>
<path stroke="#7f7f7f" vector-effect="non-scaling-stroke" d="
  M 83.03 132.90
  L 53.75 128.81"
/>
<path stroke="#dfdedf" vector-effect="non-scaling-stroke" d="
  M 53.75 128.81
  Q 48.00 127.29 42.71 127.55"
/>
<path stroke="#7f7f7f" vector-effect="non-scaling-stroke" d="
  M 42.71 127.55
  L 0.00 121.85"
/>
<path stroke="#969695" vector-effect="non-scaling-stroke" d="
  M 0.00 115.44
  L 11.05 109.03"
/>
<path stroke="#a5a4a4" vector-effect="non-scaling-stroke" d="
  M 11.05 109.03
  L 18.32 105.01"
/>
<path stroke="#abaaaa" vector-effect="non-scaling-stroke" d="
  M 18.32 105.01
  L 22.00 102.88"
/>
<path stroke="#969695" vector-effect="non-scaling-stroke" d="
  M 131.85 109.29
  Q 131.66 109.21 131.57 109.01
  Q 131.45 108.76 131.17 108.75
  L 121.00 108.38
  A 0.72 0.60 28.7 0 0 120.74 108.43
  Q 119.21 109.13 119.33 109.87
  A 1.15 1.14 -6.0 0 0 120.51 110.82
  Q 125.36 110.60 129.52 111.26
  Q 131.34 111.54 133.10 110.41
  Q 133.57 110.10 133.18 109.69
  Q 132.78 109.27 132.19 109.34
  Q 132.01 109.36 131.85 109.29"
/>
<path stroke="#abaaaa" vector-effect="non-scaling-stroke" d="
  M 112.64 127.53
  L 110.72 129.92
  A 0.79 0.79 0.0 0 0 111.34 131.20
  Q 116.10 131.14 121.03 131.09
  C 124.04 131.05 126.91 131.75 129.81 132.27
  A 2.10 2.09 -73.5 0 0 132.10 131.02
  L 136.71 120.13
  A 1.07 1.07 0.0 0 0 135.63 118.64
  L 130.88 119.08
  Q 129.51 119.21 130.51 118.27
  L 131.78 117.09
  A 0.96 0.96 0.0 0 0 131.35 115.46
  Q 123.55 113.57 116.24 113.04
  Q 115.78 113.01 115.42 113.30
  L 102.18 124.08
  Q 99.88 125.95 102.84 126.10
  C 106.18 126.27 109.38 125.65 112.51 127.01
  Q 112.91 127.19 112.64 127.53"
/>
<path stroke="#565454" vector-effect="non-scaling-stroke" d="
  M 18.32 105.01
  Q 18.48 104.62 18.24 104.10"
/>
<path stroke="#413f3f" vector-effect="non-scaling-stroke" d="
  M 11.05 109.03
  Q 11.52 108.51 11.23 108.20"
/>
<path stroke="#b2b2b2" vector-effect="non-scaling-stroke" d="
  M 87.26 109.53
  L 84.22 109.00
  A 0.38 0.37 88.9 0 0 83.79 109.45
  Q 83.89 109.90 84.28 109.95
  A 0.37 0.37 0.0 0 1 84.46 110.61
  Q 82.75 111.98 80.74 113.23
  Q 80.51 113.38 80.53 113.65
  Q 80.54 113.93 80.96 114.18"
/>
<path stroke="#5d5b5c" vector-effect="non-scaling-stroke" d="
  M 80.96 114.18
  Q 81.34 114.77 80.77 114.81"
/>
<path stroke="#b2b2b2" vector-effect="non-scaling-stroke" d="
  M 80.77 114.81
  Q 80.74 114.66 80.68 114.56
  Q 80.57 114.37 80.38 114.46
  Q 78.07 115.52 77.38 113.97"
/>
<path stroke="#969597" vector-effect="non-scaling-stroke" d="
  M 77.21 113.04
  Q 78.02 113.70 79.01 113.03
  Q 79.73 112.54 78.89 112.32
  L 77.43 111.94"
/>
<path stroke="#b2b2b2" vector-effect="non-scaling-stroke" d="
  M 77.76 111.27
  Q 78.82 110.95 79.96 111.56
  Q 80.90 112.07 81.80 111.51
  L 82.42 111.12
  Q 83.36 110.54 82.37 110.05
  Q 80.65 109.19 78.55 109.42"
/>
<path stroke="#b2b2b2" vector-effect="non-scaling-stroke" d="
  M 78.27 109.04
  Q 78.77 108.37 77.52 107.70"
/>
<path stroke="#969695" vector-effect="non-scaling-stroke" d="
  M 129.7413 109.5766
  A 0.32 0.32 0.0 0 0 129.4292 109.2489
  L 120.5318 109.0314
  A 0.32 0.32 0.0 0 0 120.2041 109.3435
  L 120.1987 109.5634
  A 0.32 0.32 0.0 0 0 120.5108 109.8911
  L 129.4082 110.1086
  A 0.32 0.32 0.0 0 0 129.7359 109.7965
  L 129.7413 109.5766"
/>
<path stroke="#b2b2b2" vector-effect="non-scaling-stroke" d="
  M 81.16 120.94
  L 77.91 118.96"
/>
<path stroke="#a5a4a4" vector-effect="non-scaling-stroke" d="
  M 77.37 117.21
  L 82.89 119.05
  Q 83.85 119.37 83.16 118.62
  Q 82.15 117.54 80.52 117.33
  Q 79.51 117.20 80.31 116.57
  L 81.68 115.48
  Q 82.35 114.95 83.09 115.39
  Q 84.66 116.34 86.45 116.73
  Q 87.44 116.94 86.62 116.35
  Q 84.10 114.54 80.96 114.18"
/>
<path stroke="#abaaaa" vector-effect="non-scaling-stroke" d="
  M 115.10 114.81
  L 103.79 124.12
  Q 102.33 125.32 104.21 125.12
  Q 109.12 124.61 113.92 126.48
  C 115.86 127.23 117.69 126.85 119.65 127.32
  A 1.28 1.28 0.0 0 0 120.84 127.01
  Q 126.30 121.94 130.71 116.75
  Q 131.18 116.20 130.47 116.07
  Q 127.33 115.47 123.88 114.79
  C 121.18 114.27 118.82 114.45 116.17 114.43
  Q 115.56 114.43 115.10 114.81"
/>
<path stroke="#abaaaa" vector-effect="non-scaling-stroke" d="
  M 124.80 126.60
  A 0.47 0.47 0.0 0 1 124.17 127.18
  Q 122.59 126.49 121.63 127.96
  Q 120.62 129.50 119.13 128.42
  Q 118.47 127.94 117.55 127.98
  A 1.87 1.72 -58.0 0 0 116.82 128.18
  Q 115.38 128.90 114.12 128.13
  A 0.65 0.64 41.3 0 0 113.38 128.17
  Q 112.69 128.71 112.21 129.43
  Q 111.86 129.97 112.50 130.00
  Q 113.28 130.05 114.01 129.73
  Q 114.53 129.50 115.06 129.66
  C 117.40 130.34 119.63 129.81 122.02 130.06
  Q 126.02 130.50 129.92 131.56
  A 0.88 0.86 19.4 0 0 130.94 131.08
  L 135.24 121.32
  Q 135.86 119.92 134.32 120.01
  L 129.36 120.30
  Q 128.81 120.34 128.42 120.73
  L 123.65 125.56
  Q 123.05 126.16 123.90 126.09
  Q 124.60 126.04 124.80 126.60"
/>
<path stroke="#a5a4a4" vector-effect="non-scaling-stroke" d="
  M 80.77 114.81
  Q 79.76 116.56 77.89 116.00"
/>
<path stroke="#4e4e4e" vector-effect="non-scaling-stroke" d="
  M 48.20 120.57
  Q 54.62 124.09 61.77 125.96
  Q 82.65 131.40 98.30 117.03"
/>
<path stroke="#bebebe" vector-effect="non-scaling-stroke" d="
  M 117.28 118.59
  Q 116.47 118.40 115.73 118.81
  Q 115.27 119.07 114.76 119.01
  L 111.53 118.64
  Q 110.86 118.57 110.75 119.23
  L 110.67 119.69
  A 0.53 0.53 0.0 0 0 111.22 120.31
  Q 117.77 119.98 123.05 121.55
  Q 123.73 121.75 123.45 121.10
  Q 123.21 120.53 122.62 120.32
  Q 121.49 119.90 120.10 119.63
  A 0.23 0.23 0.0 0 1 119.92 119.35
  L 119.99 119.09
  Q 120.03 118.90 120.22 118.95
  L 122.76 119.58
  A 0.36 0.35 -84.0 0 0 123.20 119.22
  L 123.18 118.83
  Q 123.17 118.59 122.93 118.54
  L 116.36 117.23
  A 0.19 0.19 0.0 0 0 116.14 117.41
  L 116.13 117.70
  Q 116.12 118.21 116.61 118.09
  Q 117.09 117.97 117.44 118.28
  Q 118.00 118.76 117.28 118.59"
/>
<path stroke="#dfdedf" vector-effect="non-scaling-stroke" d="
  M 118.93 124.17
  Q 118.99 123.86 119.23 123.73"
/>
<path stroke="#bebebe" vector-effect="non-scaling-stroke" d="
  M 119.23 123.73
  L 121.13 123.78
  Q 121.43 123.79 121.43 123.49
  L 121.43 123.13
  Q 121.44 122.80 121.11 122.78
  C 118.34 122.63 116.27 121.41 113.41 121.87
  Q 113.07 121.93 112.94 122.24
  L 112.80 122.56
  Q 112.64 122.94 112.23 122.89
  Q 109.95 122.62 107.12 122.79
  Q 106.43 122.84 106.02 123.32
  A 0.40 0.40 0.0 0 0 106.40 123.97
  Q 107.79 123.69 109.23 123.90
  Q 113.72 124.57 118.34 125.36
  Q 118.63 125.41 118.85 125.61
  L 119.11 125.82
  Q 119.86 126.46 119.73 125.48
  Q 119.65 124.84 118.93 124.17"
/>
<path stroke="#a3a2a3" vector-effect="non-scaling-stroke" d="
  M 119.23 123.73
  Q 117.63 122.94 116.59 123.28
  Q 115.99 123.47 116.57 123.71
  Q 117.61 124.13 118.93 124.17"
/>
<path stroke="#b2b2b2" vector-effect="non-scaling-stroke" d="
  M 79.61 121.46
  Q 79.20 120.60 77.58 120.28"
/>
<path stroke="#a5a4a4" vector-effect="non-scaling-stroke" d="
  M 131.27 124.41
  L 126.08 124.08
  Q 126.01 124.07 125.99 124.14
  L 125.94 124.39
  Q 125.91 124.54 126.05 124.59
  Q 128.68 125.47 131.47 125.10
  Q 131.57 125.08 131.57 124.98
  L 131.56 124.70
  A 0.31 0.30 1.1 0 0 131.27 124.41"
/>
<path stroke="#a5a4a4" vector-effect="non-scaling-stroke" d="
  M 131.5014 127.5615
  A 2.76 0.46 12.8 0 0 128.9119 126.5014
  A 2.76 0.46 12.8 0 0 126.1186 126.3385
  A 2.76 0.46 12.8 0 0 128.7081 127.3986
  A 2.76 0.46 12.8 0 0 131.5014 127.5615"
/>
<path stroke="#abaaaa" vector-effect="non-scaling-stroke" d="
  M 124.74 129.26
  Q 127.41 130.15 129.22 130.01
  A 0.27 0.27 0.0 0 0 129.30 129.49
  Q 127.52 128.71 124.72 128.77"
/>
<path stroke="#bebebe" vector-effect="non-scaling-stroke" d="
  M 124.72 128.77
  L 123.89 128.33
  Q 123.34 128.04 123.28 128.66
  Q 123.26 128.93 123.58 129.14
  Q 124.21 129.53 124.74 129.26"
/>
<path stroke="#6f6e6e" vector-effect="non-scaling-stroke" d="
  M 124.72 128.77
  Q 124.78 129.03 124.74 129.26"
/>
<path stroke="#646264" vector-effect="non-scaling-stroke" d="
  M 42.71 127.55
  L 53.75 128.81"
/>
<path stroke="#4c4c4d" vector-effect="non-scaling-stroke" d="
  M 83.03 132.90
  L 90.44 133.98"
/>
<path stroke="#434343" vector-effect="non-scaling-stroke" d="
  M 90.44 133.98
  Q 92.99 135.05 95.73 134.55"
/>
<path stroke="#3c3b3c" vector-effect="non-scaling-stroke" d="
  M 95.73 134.55
  Q 97.85 135.73 99.98 135.19"
/>
<path stroke="#434343" vector-effect="non-scaling-stroke" d="
  M 123.79 138.35
  Q 127.12 138.72 130.36 139.63
  Q 131.69 140.00 132.32 138.68"
/>
<path stroke="#8b8b8c" vector-effect="non-scaling-stroke" d="
  M 93.23 133.96
  L 90.44 133.98"
/>
<path stroke="#7b7b7b" vector-effect="non-scaling-stroke" d="
  M 96.81 134.39
  Q 96.28 134.57 95.73 134.55"
/>
</g>
<path fill="#151515" d="
  M 35.08 9.76
  L 35.14 8.62
  A 1.78 1.77 -10.7 0 0 32.63 6.91
  Q 30.58 7.83 31.07 9.98
  Q 31.19 10.51 31.73 10.60
  Q 33.40 10.85 35.08 9.76
  Q 31.64 15.48 24.77 24.53
  Q 23.79 25.81 22.73 26.78
  Q 22.14 27.32 22.21 26.52
  Q 22.38 24.47 20.32 24.59
  A 1.64 1.63 -86.6 0 0 18.82 25.93
  Q 18.47 27.91 19.80 28.13
  Q 20.87 28.30 19.92 28.82
  Q 19.17 29.22 18.70 29.90
  Q 18.21 30.61 18.26 29.75
  L 18.50 25.71
  Q 18.53 25.18 18.90 24.80
  C 20.38 23.26 21.99 21.91 23.26 20.15
  Q 26.15 16.18 30.03 11.87
  Q 30.47 11.38 29.81 11.38
  Q 29.64 11.38 29.46 11.34
  A 0.28 0.28 0.0 0 1 29.28 10.93
  L 31.20 7.30
  A 2.31 2.30 23.1 0 1 33.96 6.20
  Q 36.41 7.02 35.51 9.29
  Q 35.33 9.74 35.08 9.76
  Z"
/>
<path fill="#5c5a5a" d="
  M 136.10 9.28
  Q 136.11 9.05 136.35 9.04
  L 136.61 9.04
  Q 136.86 9.03 136.87 9.28
  Q 136.97 11.54 136.78 13.26
  Q 136.60 14.90 136.31 13.27
  Q 136.00 11.50 136.10 9.28
  Z"
/>
<path fill="#060606" d="
  M 115.25 10.40
  Q 115.08 10.48 115.06 10.29
  L 115.02 10.00
  Q 114.99 9.74 115.25 9.74
  L 118.42 9.70
  Q 118.61 9.69 118.58 9.88
  L 118.53 10.24
  A 0.17 0.16 -72.1 0 1 118.30 10.36
  Q 116.71 9.68 115.25 10.40
  Z"
/>
<path fill="#0d0d0d" d="
  M 115.24 11.19
  C 115.33 14.05 115.13 16.81 114.68 19.52
  A 0.06 0.06 0.0 0 1 114.57 19.51
  Q 114.73 15.59 114.97 11.19
  Q 114.98 11.06 115.10 11.06
  L 115.11 11.06
  Q 115.23 11.06 115.24 11.19
  Z"
/>
<path fill="#060606" d="
  M 118.97 16.41
  Q 118.98 18.65 118.70 20.84
  Q 118.69 20.94 118.58 20.94
  L 118.58 20.94
  Q 118.45 20.93 118.44 20.80
  C 118.32 18.64 119.01 16.68 118.89 14.61
  Q 118.81 13.26 118.81 11.89
  Q 118.80 10.93 119.21 11.79
  Q 119.28 11.93 119.41 12.02
  Q 119.62 12.17 119.52 12.41
  Q 118.88 13.99 119.56 15.47
  A 0.55 0.53 56.9 0 1 119.44 16.09
  Q 119.31 16.21 119.14 16.23
  Q 118.97 16.24 118.97 16.41
  Z"
/>
<path fill="#040304" d="
  M 122.96 11.95
  Q 121.77 11.99 120.66 12.08
  A 0.06 0.05 85.9 0 1 120.60 12.02
  L 120.61 11.76
  Q 120.61 11.68 120.69 11.67
  Q 123.05 11.38 124.88 12.05
  Q 125.95 12.44 124.81 12.34
  C 124.15 12.28 123.67 11.94 122.96 11.95
  Z"
/>
<ellipse fill="#504d4e" cx="0.00" cy="0.00" transform="translate(118.35,23.26) rotate(95.8)" rx="1.93" ry="0.19"/>
<path fill="#0d0d0d" d="
  M 144.03 22.72
  Q 146.76 22.45 149.34 22.55
  Q 149.54 22.56 149.51 22.76
  L 149.51 22.77
  Q 149.49 22.93 149.33 22.89
  Q 146.13 22.18 143.01 23.12
  A 0.17 0.16 -6.6 0 1 142.80 22.96
  Q 142.81 22.81 142.96 22.74
  Q 143.22 22.62 143.49 22.68
  Q 143.76 22.74 144.03 22.72
  Z"
/>
<path fill="#696969" d="
  M 129.02 25.79
  Q 128.83 25.67 128.88 25.49
  Q 128.97 25.12 129.27 25.37
  Q 129.69 25.72 129.85 26.28
  Q 130.01 26.85 129.42 26.76
  Q 128.82 26.67 129.11 26.17
  Q 129.25 25.94 129.02 25.79
  Z"
/>
<path fill="#151515" d="
  M 31.02 39.70
  Q 31.23 40.12 31.05 40.46
  Q 30.96 40.63 30.78 40.58
  Q 30.64 40.55 30.51 40.53
  Q 29.20 39.18 28.51 37.48
  Q 28.29 36.95 28.73 36.57
  Q 28.85 36.46 28.85 36.29
  Q 28.86 35.97 28.58 35.79
  Q 26.03 34.20 26.33 29.94
  C 26.44 28.53 28.04 27.34 29.22 26.89
  C 31.81 25.90 33.94 28.14 33.88 30.63
  Q 33.80 33.89 32.30 36.53
  Q 31.38 38.16 31.02 39.70
  Z"
/>
<path fill="#828282" d="
  M 71.83 38.02
  Q 73.48 38.15 75.66 37.91
  C 75.91 37.89 76.27 37.91 76.51 37.95
  A 0.19 0.19 0.0 0 1 76.48 38.32
  L 71.16 38.32
  A 0.53 0.53 0.0 0 1 70.63 37.79
  L 70.63 27.07
  Q 70.63 26.92 70.78 26.92
  L 71.06 26.90
  Q 71.31 26.89 71.34 27.14
  Q 71.92 32.24 71.18 37.20
  Q 71.07 37.96 71.83 38.02
  Z"
/>
<path fill="#5c5a5a" d="
  M 112.59 27.17
  A 0.43 0.43 0.0 0 1 112.55 27.88
  L 112.25 28.05
  Q 111.77 28.34 111.54 27.82
  Q 111.42 27.55 111.62 27.22
  Q 111.75 27.01 112.00 26.99
  Q 112.32 26.96 112.59 27.17
  Z"
/>
<path fill="#151515" d="
  M 82.72 27.54
  Q 82.52 27.86 82.82 27.90
  Q 81.33 28.27 80.52 27.81
  Q 79.97 27.50 80.57 27.29
  Q 81.53 26.96 82.72 27.54
  Z"
/>
<path fill="#828282" d="
  M 82.72 27.54
  L 84.36 27.55
  Q 84.93 27.56 85.01 28.13
  Q 85.13 29.09 84.76 30.04
  Q 84.57 30.55 84.42 30.02
  Q 84.33 29.72 84.48 29.42
  A 0.73 0.69 48.7 0 0 84.50 28.88
  Q 84.08 27.72 82.82 27.90
  Q 82.52 27.86 82.72 27.54
  Z"
/>
<ellipse fill="#060606" cx="0.00" cy="0.00" transform="translate(42.82,29.17) rotate(114.5)" rx="0.95" ry="0.80"/>
<path fill="#828282" d="
  M 119.84 30.34
  Q 120.58 30.11 120.97 29.41
  A 0.68 0.64 -83.6 0 1 121.30 29.13
  Q 121.85 28.93 122.02 29.25
  Q 122.14 29.46 122.06 29.69
  Q 121.48 31.27 119.79 31.08
  C 118.47 30.94 117.95 29.98 117.15 29.11
  Q 116.63 28.55 117.34 28.84
  Q 118.23 29.20 118.80 30.00
  A 0.93 0.92 62.8 0 0 119.84 30.34
  Z"
/>
<path fill="#060606" d="
  M 100.22 57.00
  Q 100.01 56.46 100.54 55.97
  Q 102.14 54.51 103.03 53.17
  Q 103.32 52.74 103.85 52.68
  Q 107.66 52.24 107.66 48.45
  A 1.65 1.65 0.0 0 0 105.11 47.08
  L 104.06 47.77
  Q 103.35 48.23 102.99 47.47
  C 102.00 45.40 101.99 43.90 100.09 42.01
  Q 98.73 39.59 96.05 38.29
  Q 95.52 38.03 95.13 38.47
  Q 91.86 42.02 87.33 42.69
  Q 86.59 42.80 87.02 43.41
  Q 88.04 44.90 88.53 46.58
  Q 88.73 47.28 89.46 47.26
  L 91.49 47.21
  Q 92.14 47.19 92.28 46.55
  C 93.07 43.07 95.76 40.63 99.26 42.55
  Q 99.48 42.89 98.79 43.03
  Q 95.56 42.14 94.07 44.06
  Q 91.48 47.42 94.57 50.98
  L 93.90 51.28
  L 92.37 48.55
  A 1.25 1.25 0.0 0 0 91.38 47.90
  Q 90.42 47.82 89.42 48.06
  Q 88.97 48.16 88.92 48.62
  L 88.88 48.96
  L 88.72 49.20
  Q 88.61 49.38 88.46 49.22
  L 88.18 48.93
  Q 88.02 46.75 87.03 44.72
  C 86.33 43.28 85.30 43.08 83.84 43.28
  A 1.18 1.17 84.0 0 0 82.83 44.53
  L 83.05 47.30
  Q 83.23 47.74 82.99 48.02
  Q 82.10 47.00 80.50 46.83
  Q 77.78 45.70 77.23 42.99
  Q 76.34 38.61 79.15 35.21
  C 80.21 33.94 83.48 31.76 85.11 31.47
  Q 86.89 31.16 88.68 30.49
  Q 95.61 27.89 102.67 30.76
  Q 108.19 33.01 109.33 39.57
  C 110.37 45.58 111.34 53.25 104.62 55.87
  C 103.15 56.45 101.65 55.61 100.22 57.00
  Z"
/>
<path fill="#040304" d="
  M 11.73 34.90
  Q 10.94 35.28 11.58 34.68
  Q 12.72 33.61 14.82 33.10
  Q 15.46 32.94 14.88 33.27
  Q 13.34 34.12 11.73 34.90
  Z"
/>
<path fill="#060606" d="
  M 36.45 39.19
  Q 38.16 37.78 37.72 34.57
  Q 37.70 34.45 37.82 34.44
  L 38.11 34.41
  Q 38.66 34.37 38.52 34.90
  C 38.04 36.65 38.32 38.67 36.44 39.66
  Q 34.74 40.56 33.14 40.42
  Q 33.06 40.41 33.04 40.33
  Q 33.04 40.33 33.12 40.40
  Q 33.17 40.44 33.22 40.42
  C 34.26 39.98 35.55 39.91 36.45 39.19
  Z"
/>
<path fill="#040304" d="
  M 52.13 38.14
  L 49.54 37.05
  Q 49.04 36.84 49.58 36.88
  Q 51.26 37.00 52.27 37.93
  Q 52.80 38.42 52.13 38.14
  Z"
/>
<path fill="#040304" d="
  M 58.52 38.72
  L 56.27 37.53
  Q 55.80 37.29 56.31 37.43
  Q 57.54 37.76 58.69 38.36
  Q 58.76 38.40 58.73 38.48
  L 58.63 38.72
  Q 58.61 38.76 58.52 38.72
  Z"
/>
<path fill="#fafafa" d="
  M 100.09 42.01
  Q 100.24 42.65 99.70 42.74
  Q 99.52 42.80 99.26 42.55
  C 95.76 40.63 93.07 43.07 92.28 46.55
  Q 92.14 47.19 91.49 47.21
  L 89.46 47.26
  Q 88.73 47.28 88.53 46.58
  Q 88.04 44.90 87.02 43.41
  Q 86.59 42.80 87.33 42.69
  Q 91.86 42.02 95.13 38.47
  Q 95.52 38.03 96.05 38.29
  Q 98.73 39.59 100.09 42.01
  Z"
/>
<path fill="#060606" d="
  M 31.02 39.70
  L 31.26 40.06
  Q 31.55 40.48 31.24 40.89
  L 28.39 44.64
  Q 27.61 45.67 28.10 44.47
  Q 28.76 42.84 30.18 41.58
  Q 30.39 41.38 30.48 41.11
  Q 30.58 40.79 30.51 40.53
  Q 30.64 40.55 30.78 40.58
  Q 30.96 40.63 31.05 40.46
  Q 31.23 40.12 31.02 39.70
  Z"
/>
<path fill="#0d0d0d" d="
  M 42.21 40.67
  A 0.38 0.38 0.0 0 1 42.83 40.58
  Q 44.59 42.51 46.73 43.63
  Q 47.39 43.98 47.59 44.69
  C 48.16 46.68 47.48 49.74 44.81 49.62
  Q 42.30 49.51 39.66 48.83
  A 0.96 0.95 -82.0 0 1 38.95 47.88
  L 39.02 45.45
  Q 39.03 44.87 39.45 44.46
  Q 41.15 42.82 42.21 40.67
  Z"
/>
<path fill="#040304" d="
  M 53.72 40.98
  Q 53.88 40.59 54.01 40.99
  Q 54.26 41.84 54.01 42.65
  Q 53.86 43.16 53.67 42.66
  Q 53.36 41.81 53.72 40.98
  Z"
/>
<path fill="#000000" fill-opacity="0.502" d="
  M 59.02 41.90
  Q 59.18 41.51 59.36 41.13
  Q 59.78 40.25 59.85 41.22
  Q 59.95 42.60 58.60 43.79
  Q 58.07 44.25 58.15 43.56
  Q 58.23 42.86 58.70 42.39
  A 1.46 1.41 79.1 0 0 59.02 41.90
  Z"
/>
<path fill="#949495" d="
  M 100.09 42.01
  C 101.99 43.90 102.00 45.40 102.99 47.47
  Q 103.35 48.23 104.06 47.77
  L 105.11 47.08
  A 1.65 1.65 0.0 0 1 107.66 48.45
  Q 107.66 52.24 103.85 52.68
  Q 103.32 52.74 103.03 53.17
  Q 102.14 54.51 100.54 55.97
  Q 100.01 56.46 100.22 57.00
  Q 100.11 57.35 99.84 57.18
  L 97.89 57.81
  Q 99.54 54.33 99.48 51.29
  Q 100.32 49.89 100.70 48.03
  Q 100.82 47.44 101.31 47.09
  L 101.75 46.78
  Q 102.42 46.29 101.64 46.02
  Q 100.59 45.66 100.63 44.60
  Q 100.64 44.07 100.33 43.63
  L 99.70 42.74
  Q 100.24 42.65 100.09 42.01
  Z"
/>
<path fill="#504d4e" d="
  M 99.26 42.55
  Q 99.52 42.80 99.70 42.74
  L 100.33 43.63
  Q 100.64 44.07 100.63 44.60
  Q 100.59 45.66 101.64 46.02
  Q 102.42 46.29 101.75 46.78
  L 101.31 47.09
  Q 100.82 47.44 100.70 48.03
  Q 100.32 49.89 99.48 51.29
  Q 96.44 53.46 93.90 51.28
  L 94.57 50.98
  Q 96.11 51.71 97.56 51.22
  C 100.66 50.17 99.95 45.16 98.79 43.03
  Q 99.48 42.89 99.26 42.55
  Z"
/>
<path fill="#fafafa" d="
  M 98.79 43.03
  C 99.95 45.16 100.66 50.17 97.56 51.22
  Q 96.11 51.71 94.57 50.98
  Q 91.48 47.42 94.07 44.06
  Q 95.56 42.14 98.79 43.03
  Z
  M 95.81 44.57
  Q 95.42 44.56 95.51 44.94
  L 96.34 48.36
  A 0.48 0.46 7.4 0 0 96.59 48.67
  Q 96.92 48.82 97.07 48.57
  Q 97.18 48.38 97.15 48.14
  Q 96.93 46.47 96.39 44.73
  Q 96.34 44.59 96.19 44.58
  L 95.81 44.57
  Z"
/>
<path fill="#fafafa" d="
  M 88.18 48.93
  Q 87.73 50.81 86.30 52.02
  A 1.09 1.08 -29.4 0 1 84.57 51.54
  Q 84.47 51.26 84.03 50.65
  Q 83.82 48.88 83.05 47.30
  L 82.83 44.53
  A 1.18 1.17 84.0 0 1 83.84 43.28
  C 85.30 43.08 86.33 43.28 87.03 44.72
  Q 88.02 46.75 88.18 48.93
  Z
  M 85.39 45.91
  Q 85.42 45.46 85.24 45.05
  Q 85.10 44.74 84.81 44.90
  L 84.54 45.06
  Q 84.42 45.12 84.44 45.26
  L 84.90 48.71
  Q 84.99 49.37 85.66 49.31
  L 86.00 49.29
  Q 86.21 49.27 86.25 49.07
  Q 86.46 47.92 85.73 47.01
  Q 85.34 46.53 85.39 45.91
  Z"
/>
<path fill="#151515" d="
  M 96.39 44.73
  Q 96.93 46.47 97.15 48.14
  Q 97.18 48.38 97.07 48.57
  Q 96.92 48.82 96.59 48.67
  A 0.48 0.46 7.4 0 1 96.34 48.36
  L 95.51 44.94
  Q 95.42 44.56 95.81 44.57
  L 96.19 44.58
  Q 96.34 44.59 96.39 44.73
  Z"
/>
<path fill="#504d4e" d="
  M 85.73 47.01
  Q 86.46 47.92 86.25 49.07
  Q 86.21 49.27 86.00 49.29
  L 85.66 49.31
  Q 84.99 49.37 84.90 48.71
  L 84.44 45.26
  Q 84.42 45.12 84.54 45.06
  L 84.81 44.90
  Q 85.10 44.74 85.24 45.05
  Q 85.42 45.46 85.39 45.91
  Q 85.34 46.53 85.73 47.01
  Z"
/>
<path fill="#000000" fill-opacity="0.502" d="
  M 51.35 51.16
  Q 50.13 52.67 51.43 54.17
  Q 52.00 54.83 51.20 54.48
  Q 50.80 54.31 50.62 53.92
  C 49.32 51.08 54.04 46.54 56.00 45.26
  Q 56.23 45.12 56.47 45.22
  Q 56.52 45.24 56.54 45.29
  Q 56.66 45.52 56.47 45.70
  Q 53.36 48.68 51.35 51.16
  Z"
/>
<path fill="#040304" d="
  M 60.46 47.22
  A 0.45 0.45 0.0 0 1 59.66 47.15
  Q 59.48 46.69 59.68 46.19
  A 0.43 0.43 0.0 0 1 60.39 46.05
  Q 60.89 46.56 60.46 47.22
  Z"
/>
<path fill="#151515" d="
  M 5.90 52.18
  Q 4.15 50.93 5.87 49.64
  L 9.24 47.12
  A 2.38 2.37 -35.2 0 1 12.64 47.70
  L 15.53 52.01
  Q 15.84 52.47 15.44 52.86
  Q 12.92 55.32 9.94 56.72
  Q 9.49 56.93 9.28 56.76
  Q 9.06 56.59 9.09 56.32
  Q 9.15 55.86 8.90 55.46
  Q 7.58 53.37 5.90 52.18
  Z"
/>
<path fill="#080908" fill-opacity="0.180" d="
  M 80.50 46.83
  Q 82.10 47.00 82.99 48.02
  L 83.65 50.72
  Q 83.83 51.35 83.69 51.71
  Q 83.51 52.20 83.01 52.03
  Q 82.59 51.89 82.16 51.90
  Q 80.00 49.66 80.50 46.83
  Z"
/>
<path fill="#949495" d="
  M 134.49 49.95
  Q 134.24 50.72 134.21 49.91
  Q 134.17 48.68 134.90 47.49
  Q 135.43 46.63 135.17 47.61
  Q 134.86 48.81 134.49 49.95
  Z"
/>
<path fill="#504d4e" d="
  M 83.05 47.30
  Q 83.82 48.88 84.03 50.65
  Q 83.84 50.69 83.65 50.72
  L 82.99 48.02
  Q 83.23 47.74 83.05 47.30
  Z"
/>
<path fill="#fafafa" d="
  M 93.90 51.28
  Q 96.44 53.46 99.48 51.29
  Q 99.54 54.33 97.89 57.81
  Q 96.26 59.53 94.07 59.83
  Q 92.15 60.10 90.15 58.91
  Q 87.23 57.16 85.35 53.96
  A 0.55 0.55 0.0 0 1 85.67 53.15
  Q 87.61 52.58 88.80 49.97
  Q 89.42 51.47 88.07 52.91
  Q 87.60 53.41 88.24 53.64
  Q 89.76 54.18 91.50 53.65
  Q 91.74 53.58 91.78 53.33
  Q 91.78 53.28 91.77 53.23
  Q 91.68 52.99 91.43 53.01
  Q 90.76 53.07 90.13 53.00
  Q 89.60 52.93 89.60 52.40
  Q 89.58 51.20 90.05 50.27
  Q 90.29 49.77 89.75 49.68
  L 88.97 49.54
  Q 88.83 49.26 88.88 48.96
  L 88.92 48.62
  Q 88.97 48.16 89.42 48.06
  Q 90.42 47.82 91.38 47.90
  A 1.25 1.25 0.0 0 1 92.37 48.55
  L 93.90 51.28
  Z
  M 93.50 54.86
  Q 92.20 55.36 91.45 56.40
  Q 90.82 57.28 91.85 56.93
  Q 93.14 56.50 94.11 55.53
  Q 94.15 55.49 94.13 55.44
  L 93.92 55.02
  Q 93.79 54.74 93.50 54.86
  Z"
/>
<path fill="#060606" d="
  M 31.64 50.04
  Q 31.54 50.22 31.51 50.42
  A 0.09 0.09 0.0 0 1 31.34 50.41
  Q 31.25 48.66 32.82 48.29
  Q 33.48 48.13 33.01 48.62
  C 32.58 49.05 31.92 49.50 31.64 50.04
  Z"
/>
<path fill="#828282" d="
  M 130.66 49.14
  Q 130.45 49.46 130.42 49.84
  Q 130.39 50.42 130.13 49.90
  Q 129.82 49.27 130.02 48.61
  Q 130.16 48.15 130.57 48.42
  Q 130.77 48.55 130.87 48.78
  Q 130.91 48.87 130.83 48.93
  Q 130.73 49.02 130.66 49.14
  Z"
/>
<path fill="#0d0d0d" d="
  M 88.18 48.93
  L 88.46 49.22
  Q 88.61 49.38 88.72 49.20
  L 88.88 48.96
  Q 88.83 49.26 88.97 49.54
  Q 88.34 50.34 88.80 49.97
  Q 87.61 52.58 85.67 53.15
  A 0.55 0.55 0.0 0 0 85.35 53.96
  Q 87.23 57.16 90.15 58.91
  Q 92.15 60.10 94.07 59.83
  Q 96.26 59.53 97.89 57.81
  L 99.84 57.18
  Q 99.01 59.81 99.83 62.74
  Q 99.79 62.86 99.74 62.98
  Q 99.12 61.89 99.27 60.65
  Q 99.54 58.40 98.03 60.08
  Q 97.26 60.94 96.04 61.60
  L 94.60 62.55
  Q 94.69 64.00 92.81 63.68
  Q 94.39 63.56 93.64 61.43
  Q 93.46 60.92 92.93 60.79
  Q 87.58 59.55 84.87 53.96
  C 84.32 52.85 83.26 52.37 82.16 51.90
  Q 82.59 51.89 83.01 52.03
  Q 83.51 52.20 83.69 51.71
  Q 83.83 51.35 83.65 50.72
  Q 83.84 50.69 84.03 50.65
  Q 84.47 51.26 84.57 51.54
  A 1.09 1.08 -29.4 0 0 86.30 52.02
  Q 87.73 50.81 88.18 48.93
  Z"
/>
<path fill="#31312f" d="
  M 88.97 49.54
  L 89.75 49.68
  Q 90.29 49.77 90.05 50.27
  Q 89.58 51.20 89.60 52.40
  Q 89.60 52.93 90.13 53.00
  Q 90.76 53.07 91.43 53.01
  Q 91.68 52.99 91.77 53.23
  Q 91.78 53.28 91.78 53.33
  Q 91.74 53.58 91.50 53.65
  Q 89.76 54.18 88.24 53.64
  Q 87.60 53.41 88.07 52.91
  Q 89.42 51.47 88.80 49.97
  Q 88.34 50.34 88.97 49.54
  Z"
/>
<path fill="#828282" d="
  M 133.62 51.44
  Q 133.62 51.42 133.62 51.40
  Q 133.63 51.23 133.67 51.39
  Q 134.33 53.58 134.77 55.86
  A 0.07 0.07 0.0 0 1 134.71 55.94
  L 134.44 55.99
  Q 134.31 56.01 134.27 55.88
  Q 133.84 54.26 133.39 52.61
  Q 133.24 52.04 133.60 51.54
  Q 133.62 51.50 133.62 51.44
  Z"
/>
<path fill="#040304" d="
  M 29.73 54.26
  Q 28.36 54.86 27.74 56.25
  Q 27.40 57.01 27.42 56.17
  Q 27.44 55.29 28.23 54.84
  C 29.40 54.16 30.70 53.52 31.04 52.08
  Q 31.28 51.05 31.30 52.11
  Q 31.33 53.55 29.73 54.26
  Z"
/>
<path fill="#949495" d="
  M 139.16 56.20
  Q 140.52 55.28 140.08 53.13
  Q 140.04 52.93 140.16 52.78
  Q 140.25 52.67 140.29 52.54
  Q 140.37 52.22 140.43 52.54
  Q 140.76 54.28 140.09 55.95
  Q 139.97 56.25 139.64 56.34
  Q 139.47 56.39 139.30 56.46
  Q 137.98 56.99 139.16 56.20
  Z"
/>
<path fill="#060606" d="
  M 44.61 54.21
  Q 45.25 53.81 45.45 54.54
  Q 45.77 55.66 44.83 55.83
  A 0.66 0.66 0.0 0 1 44.06 55.22
  Q 44.03 54.57 44.61 54.21
  Z"
/>
<path fill="#5c5a5a" d="
  M 93.50 54.86
  Q 93.79 54.74 93.92 55.02
  L 94.13 55.44
  Q 94.15 55.49 94.11 55.53
  Q 93.14 56.50 91.85 56.93
  Q 90.82 57.28 91.45 56.40
  Q 92.20 55.36 93.50 54.86
  Z"
/>
<path fill="#060606" d="
  M 0.72 56.65
  Q 1.53 56.73 1.57 56.93
  A 0.73 0.70 10.3 0 1 0.49 57.64
  Q -0.01 57.36 0.29 56.87
  A 0.46 0.44 -71.0 0 1 0.72 56.65
  Z"
/>
<path fill="#5c5a5a" d="
  M 132.38 58.46
  Q 132.14 58.95 131.93 58.44
  Q 131.66 57.80 131.95 57.13
  Q 132.15 56.66 132.38 57.12
  Q 132.71 57.77 132.38 58.46
  Z"
/>
<path fill="#949495" d="
  M 139.45 57.94
  A 0.13 0.13 0.0 0 1 139.62 57.85
  L 139.87 57.94
  Q 140.05 58.00 139.98 58.18
  Q 139.39 59.62 139.30 61.21
  Q 139.29 61.48 139.03 61.45
  L 138.71 61.41
  Q 138.52 61.39 138.57 61.21
  L 139.45 57.94
  Z"
/>
<ellipse fill="#5c5a5a" cx="0.00" cy="0.00" transform="translate(137.31,58.43) rotate(-6.0)" rx="1.34" ry="0.25"/>
<path fill="#5c5a5a" d="
  M 149.23 60.30
  A 0.46 0.43 -81.8 0 1 148.98 60.50
  Q 148.33 60.67 148.77 59.29
  A 0.30 0.30 0.0 0 1 149.35 59.29
  Q 149.50 59.79 149.23 60.30
  Z"
/>
<path fill="#696969" d="
  M 99.74 62.98
  Q 99.83 63.43 100.01 63.70
  Q 100.29 64.14 100.77 63.94
  Q 101.58 63.62 102.75 63.78
  Q 103.24 63.71 103.47 64.00
  L 102.88 64.32
  Q 102.49 64.31 101.86 64.07
  A 0.55 0.54 38.7 0 0 101.37 64.12
  Q 100.91 64.43 101.14 64.86
  A 0.59 0.58 46.2 0 1 101.13 65.47
  C 99.41 68.28 94.86 70.05 94.14 65.17
  A 0.74 0.73 80.6 0 0 93.28 64.55
  L 80.06 66.98
  Q 80.36 66.94 80.26 66.37
  L 92.81 63.68
  Q 94.69 64.00 94.60 62.55
  L 95.98 66.45
  Q 96.17 66.99 96.73 67.12
  Q 97.32 67.26 97.80 66.86
  Q 98.28 66.47 98.11 65.87
  Q 97.38 63.32 96.04 61.60
  Q 97.26 60.94 98.03 60.08
  Q 99.54 58.40 99.27 60.65
  Q 99.12 61.89 99.74 62.98
  Z"
/>
<path fill="#949495" d="
  M 134.00 62.81
  Q 133.03 62.87 132.80 62.62
  Q 133.85 62.26 133.03 60.11
  Q 132.67 59.18 133.25 59.99
  Q 133.81 60.76 134.02 61.63
  Q 134.17 62.25 134.80 62.19
  Q 136.83 62.00 138.76 62.33
  Q 141.94 62.88 145.34 62.44
  Q 145.77 62.38 146.18 62.52
  Q 146.50 62.63 146.82 62.67
  Q 146.89 62.68 146.87 62.61
  Q 146.87 62.61 146.87 62.60
  Q 146.87 62.60 146.85 62.60
  Q 144.97 63.08 143.00 62.99
  Q 138.48 62.81 134.00 62.81
  Z"
/>
<path fill="#0d0d0d" d="
  M 37.08 61.80
  Q 38.04 61.03 39.23 60.87
  Q 39.85 60.79 39.94 61.40
  Q 40.24 63.46 38.94 65.05
  Q 37.34 67.02 36.61 69.26
  Q 36.38 69.96 35.95 69.35
  C 34.49 67.28 31.72 65.18 33.28 62.38
  Q 33.56 61.88 34.12 61.95
  L 35.88 62.15
  Q 36.56 62.23 37.08 61.80
  Z"
/>
<path fill="#040304" d="
  M 46.56 61.95
  C 45.86 62.55 45.41 63.64 44.99 64.44
  Q 44.42 65.54 44.71 64.33
  Q 45.05 62.92 46.10 61.91
  Q 46.24 61.78 46.43 61.80
  Q 46.48 61.80 46.53 61.81
  Q 46.67 61.85 46.56 61.95
  Z"
/>
<path fill="#fafafa" d="
  M 96.04 61.60
  Q 97.38 63.32 98.11 65.87
  Q 98.28 66.47 97.80 66.86
  Q 97.32 67.26 96.73 67.12
  Q 96.17 66.99 95.98 66.45
  L 94.60 62.55
  L 96.04 61.60
  Z"
/>
<path fill="#040304" d="
  M 25.89 64.19
  C 25.41 63.69 24.49 62.87 24.12 62.37
  Q 23.77 61.90 24.28 62.18
  Q 25.47 62.83 26.12 64.02
  Q 26.61 64.93 25.89 64.19
  Z"
/>
<path fill="#5c5a5a" d="
  M 132.80 62.62
  Q 133.03 62.87 134.00 62.81
  Q 131.68 62.72 129.87 63.36
  Q 130.07 63.67 129.59 63.43
  Q 129.82 62.06 132.80 62.62
  Z"
/>
<path fill="#31312f" d="
  M 99.83 62.74
  L 102.75 63.78
  Q 101.58 63.62 100.77 63.94
  Q 100.29 64.14 100.01 63.70
  Q 99.83 63.43 99.74 62.98
  Q 99.79 62.86 99.83 62.74
  Z"
/>
<path fill="#080908" fill-opacity="0.180" d="
  M 129.59 63.43
  Q 130.07 63.67 129.87 63.36
  L 130.24 63.77
  Q 130.55 64.10 131.01 64.14
  L 134.97 64.44
  A 0.44 0.43 -15.2 0 1 135.31 64.63
  Q 135.67 65.17 135.68 64.95
  Q 135.74 65.32 135.99 65.25
  L 135.81 66.18
  A 1.70 1.70 0.0 0 1 132.98 67.08
  Q 131.70 65.86 129.90 64.93
  Q 129.43 64.68 129.49 64.15
  L 129.59 63.43
  Z"
/>
<path fill="#fafafa" d="
  M 102.88 64.32
  L 109.45 67.23
  Q 110.94 68.05 111.45 69.01
  Q 116.59 78.82 116.52 90.18
  Q 113.50 89.93 110.29 90.87
  Q 108.84 91.29 108.86 89.79
  Q 108.88 87.55 110.33 85.24
  Q 110.57 84.87 110.34 84.50
  L 108.77 81.93
  Q 108.43 81.38 108.10 81.94
  Q 107.97 82.16 107.90 82.54
  Q 106.41 85.89 104.80 89.25
  Q 103.50 91.96 98.75 95.98
  L 92.58 98.70
  L 91.46 99.31
  Q 91.14 99.33 90.93 99.48
  Q 90.55 99.74 90.74 100.16
  Q 90.99 100.73 90.41 101.01
  C 88.51 101.89 87.17 101.03 85.29 100.96
  Q 82.11 100.84 78.96 100.62
  Q 78.46 100.60 78.08 100.42
  Q 77.58 100.20 77.64 99.67
  L 78.15 95.26
  L 81.06 73.34
  Q 81.13 72.79 80.61 72.96
  Q 80.39 73.02 80.29 73.24
  Q 77.32 80.13 75.70 86.17
  A 0.92 0.92 0.0 0 1 74.49 86.79
  Q 70.34 85.28 66.68 85.68
  Q 66.00 85.75 66.23 85.11
  Q 70.42 73.53 80.06 66.98
  L 93.28 64.55
  A 0.74 0.73 80.6 0 1 94.14 65.17
  C 94.86 70.05 99.41 68.28 101.13 65.47
  A 0.59 0.58 46.2 0 0 101.14 64.86
  Q 100.91 64.43 101.37 64.12
  A 0.55 0.54 38.7 0 1 101.86 64.07
  Q 102.49 64.31 102.88 64.32
  Z"
/>
<path fill="#5c5a5a" d="
  M 103.47 64.00
  L 111.07 67.20
  L 109.45 67.23
  L 102.88 64.32
  L 103.47 64.00
  Z"
/>
<path fill="#5c5a5a" d="
  M 135.99 65.25
  Q 135.74 65.32 135.68 64.95
  Q 137.38 64.34 139.17 64.67
  Q 139.32 64.70 139.29 64.85
  L 139.29 64.85
  Q 139.26 65.00 139.12 64.97
  Q 137.51 64.68 135.99 65.25
  Z"
/>
<path fill="#31312f" d="
  M 80.26 66.37
  Q 80.36 66.94 80.06 66.98
  Q 70.42 73.53 66.23 85.11
  Q 66.00 85.75 66.68 85.68
  Q 70.34 85.28 74.49 86.79
  A 0.92 0.92 0.0 0 0 75.70 86.17
  Q 77.32 80.13 80.29 73.24
  Q 80.39 73.02 80.61 72.96
  Q 81.13 72.79 81.06 73.34
  L 78.15 95.26
  Q 78.03 94.66 77.68 94.82
  Q 78.58 91.51 77.76 89.01
  Q 78.37 88.18 76.75 87.85
  Q 76.19 87.73 75.68 88.24
  Q 75.42 87.67 74.76 87.64
  Q 66.16 87.24 57.62 84.85
  L 64.68 85.81
  A 0.89 0.89 0.0 0 0 65.65 85.20
  Q 69.16 74.12 78.62 67.07
  C 79.16 66.66 79.65 66.60 80.26 66.37
  Z"
/>
<path fill="#828282" d="
  M 109.45 67.23
  L 111.07 67.20
  Q 114.27 68.95 116.21 72.75
  Q 116.24 72.51 115.99 72.64
  Q 115.80 72.74 115.88 72.94
  L 117.47 76.46
  Q 118.63 79.12 118.65 81.87
  Q 118.65 82.04 118.73 82.19
  L 118.94 82.56
  Q 119.13 82.90 119.11 83.30
  Q 119.00 86.14 118.99 89.01
  Q 118.98 91.04 116.52 90.18
  Q 116.59 78.82 111.45 69.01
  Q 110.94 68.05 109.45 67.23
  Z"
/>
<path fill="#040304" d="
  M 9.19 69.26
  Q 8.11 68.22 6.72 68.13
  Q 6.61 68.12 6.71 68.09
  Q 7.78 67.82 8.79 68.46
  C 10.36 69.47 9.78 71.46 8.86 72.67
  Q 8.75 72.80 8.61 72.71
  L 8.61 72.71
  Q 8.43 72.60 8.55 72.43
  Q 9.26 71.45 9.51 70.31
  Q 9.64 69.70 9.19 69.26
  Z"
/>
<path fill="#040304" d="
  M 12.53 68.14
  Q 13.09 68.07 13.24 68.62
  Q 13.28 68.77 13.27 68.92
  Q 13.26 69.47 12.72 69.56
  Q 12.21 69.66 11.82 69.30
  Q 11.53 69.03 11.72 68.68
  Q 11.98 68.21 12.53 68.14
  Z"
/>
<path fill="#31312f" d="
  M 116.21 72.75
  Q 117.14 73.88 117.57 75.19
  Q 117.21 75.67 117.47 76.46
  L 115.88 72.94
  Q 115.80 72.74 115.99 72.64
  Q 116.24 72.51 116.21 72.75
  Z"
/>
<path fill="#000000" fill-opacity="0.502" d="
  M 5.16 73.53
  Q 5.16 73.25 5.37 73.10
  Q 5.87 72.74 5.77 73.34
  Q 5.57 74.65 4.50 75.32
  Q 3.70 75.83 4.27 75.06
  L 4.94 74.16
  Q 5.15 73.88 5.16 73.53
  Z"
/>
<path fill="#040304" d="
  M 25.52 73.91
  Q 26.97 74.11 27.55 74.51
  Q 29.12 75.57 27.39 74.80
  Q 25.93 74.13 23.57 73.93
  A 0.03 0.03 0.0 0 1 23.57 73.87
  Q 24.54 73.77 25.52 73.91
  Z"
/>
<path fill="#292929" d="
  M 117.57 75.19
  Q 120.95 82.10 121.32 90.50
  Q 121.38 91.82 120.43 92.31
  Q 119.85 92.61 119.73 93.26
  Q 118.99 97.45 117.94 101.92
  Q 117.84 102.32 117.57 102.62
  Q 117.33 102.88 117.06 103.10
  Q 115.52 104.34 117.49 104.54
  L 150.00 107.91
  L 150.00 108.72
  Q 132.78 106.68 115.53 105.11
  Q 115.41 105.10 110.27 104.43
  Q 106.42 103.94 102.47 104.30
  L 97.23 103.59
  Q 99.26 102.72 100.05 101.76
  Q 100.99 101.63 100.96 102.73
  Q 100.95 103.36 101.57 103.37
  Q 103.73 103.42 105.57 102.08
  Q 105.94 101.81 106.37 101.99
  Q 109.05 103.11 111.81 103.36
  Q 116.05 103.75 117.14 99.30
  Q 117.83 96.46 118.10 92.60
  Q 118.13 92.15 117.77 91.88
  Q 115.57 90.20 112.70 91.21
  L 109.57 91.57
  Q 109.08 91.62 108.98 92.11
  Q 108.42 94.80 108.98 97.18
  Q 109.22 97.45 108.21 97.56
  Q 107.33 97.22 106.77 97.40
  L 100.25 97.26
  Q 99.90 97.25 99.86 96.90
  Q 99.83 96.70 100.00 96.59
  Q 100.31 96.41 101.04 96.43
  L 104.38 96.33
  A 1.61 1.61 0.0 0 0 105.92 94.97
  Q 106.10 93.88 106.93 93.12
  Q 107.36 92.73 107.49 92.16
  Q 108.31 88.48 108.86 85.01
  Q 109.11 83.41 107.90 82.54
  Q 107.97 82.16 108.10 81.94
  Q 108.43 81.38 108.77 81.93
  L 110.34 84.50
  Q 110.57 84.87 110.33 85.24
  Q 108.88 87.55 108.86 89.79
  Q 108.84 91.29 110.29 90.87
  Q 113.50 89.93 116.52 90.18
  Q 118.98 91.04 118.99 89.01
  Q 119.00 86.14 119.11 83.30
  Q 119.13 82.90 118.94 82.56
  L 118.73 82.19
  Q 118.65 82.04 118.65 81.87
  Q 118.63 79.12 117.47 76.46
  Q 117.21 75.67 117.57 75.19
  Z"
/>
<path fill="#080908" fill-opacity="0.180" d="
  M 6.91 79.65
  Q 6.90 79.93 7.01 80.19
  Q 7.17 80.56 6.77 80.62
  Q 5.81 80.77 5.59 79.80
  Q 4.99 77.20 6.24 75.86
  Q 7.27 74.76 7.11 76.25
  Q 6.92 78.03 6.91 79.65
  Z"
/>
<path fill="#000000" fill-opacity="0.502" d="
  M 7.97 80.92
  A 0.60 0.54 32.0 0 1 7.69 80.97
  Q 6.90 80.91 7.17 80.54
  Q 7.23 80.47 7.32 80.45
  Q 9.46 79.95 10.90 77.78
  Q 10.94 77.73 10.99 77.76
  L 11.23 77.91
  Q 11.61 78.14 11.32 78.48
  Q 9.99 80.04 7.97 80.92
  Z"
/>
<path fill="#151515" d="
  M 37.29 81.96
  L 33.17 82.24
  L 24.74 81.21
  A 0.80 0.79 -0.3 0 0 23.85 82.10
  L 25.16 92.01
  Q 25.24 93.50 24.73 93.56
  L 22.90 80.74
  A 0.54 0.54 0.0 0 1 23.50 80.13
  L 37.29 81.96
  Z"
/>
<path fill="#fafafa" d="
  M 33.17 82.24
  L 40.18 83.34
  Q 41.84 83.36 43.43 83.72
  Q 45.28 84.14 46.61 84.19
  Q 49.71 84.32 52.82 84.95
  Q 54.41 85.28 55.97 86.53
  C 61.69 91.13 64.09 97.02 60.12 103.71
  L 55.99 108.83
  Q 54.50 110.52 52.50 111.54
  Q 49.53 112.51 47.24 114.28
  L 38.86 116.63
  L 28.65 114.88
  L 25.16 92.01
  L 23.85 82.10
  A 0.80 0.79 -0.3 0 1 24.74 81.21
  L 33.17 82.24
  Z
  M 44.94 100.91
  Q 45.34 102.50 46.53 103.53
  Q 46.66 103.81 46.83 104.00
  Q 47.06 104.28 47.43 104.34
  Q 49.26 104.65 50.73 105.20
  Q 51.37 105.44 51.68 104.82
  Q 52.66 102.85 52.08 101.40
  Q 53.84 97.81 50.10 96.20
  Q 48.11 95.25 46.58 96.09
  Q 44.25 97.37 44.94 100.91
  Z"
/>
<path fill="#5c5a5a" d="
  M 37.29 81.96
  L 44.54 82.97
  L 40.18 83.34
  L 33.17 82.24
  L 37.29 81.96
  Z"
/>
<path fill="#737373" d="
  M 107.90 82.54
  Q 109.11 83.41 108.86 85.01
  Q 108.31 88.48 107.49 92.16
  Q 107.36 92.73 106.93 93.12
  Q 106.10 93.88 105.92 94.97
  A 1.61 1.61 0.0 0 1 104.38 96.33
  L 101.04 96.43
  L 98.75 95.98
  Q 103.50 91.96 104.80 89.25
  Q 106.41 85.89 107.90 82.54
  Z"
/>
<path fill="#737373" d="
  M 44.54 82.97
  L 57.62 84.85
  Q 66.16 87.24 74.76 87.64
  Q 75.42 87.67 75.68 88.24
  L 75.82 104.20
  Q 74.91 105.72 75.89 107.07
  L 75.43 115.52
  Q 74.24 117.63 74.56 119.84
  A 0.82 0.82 0.0 0 1 73.66 120.78
  L 55.42 118.88
  L 38.86 116.63
  L 47.24 114.28
  Q 50.24 114.05 52.50 111.54
  Q 54.50 110.52 55.99 108.83
  Q 59.22 107.06 60.12 103.71
  C 64.09 97.02 61.69 91.13 55.97 86.53
  Q 54.41 85.28 52.82 84.95
  Q 49.71 84.32 46.61 84.19
  Q 45.28 84.14 43.43 83.72
  Q 41.84 83.36 40.18 83.34
  L 44.54 82.97
  Z"
/>
<path fill="#949495" d="
  M 132.72 85.13
  L 131.02 85.35
  L 127.26 85.19
  A 0.07 0.06 45.9 0 1 127.26 85.06
  L 132.72 85.13
  Z"
/>
<path fill="#828282" d="
  M 132.72 85.13
  Q 136.93 85.04 141.11 84.92
  Q 141.31 84.91 141.31 85.11
  L 141.31 85.12
  Q 141.32 85.32 141.12 85.32
  Q 136.08 85.44 131.02 85.35
  L 132.72 85.13
  Z"
/>
<path fill="#151515" d="
  M 77.76 89.01
  Q 75.71 93.89 76.58 99.42
  Q 76.64 99.81 76.84 99.47
  Q 76.98 99.23 77.13 98.50
  Q 77.52 96.60 77.68 94.82
  Q 78.03 94.66 78.15 95.26
  L 77.64 99.67
  Q 77.58 100.20 78.08 100.42
  Q 78.46 100.60 78.96 100.62
  Q 79.34 100.90 78.75 101.57
  Q 78.12 101.36 77.46 101.40
  Q 76.86 101.43 76.86 102.03
  Q 76.89 104.27 76.97 106.30
  Q 76.98 106.50 77.10 106.66
  Q 77.29 106.90 77.53 106.74
  Q 77.28 107.56 77.52 107.70
  Q 76.88 107.84 76.98 108.61
  Q 77.05 109.12 77.41 109.19
  Q 77.75 109.25 78.27 109.04
  L 78.55 109.42
  L 77.30 110.22
  A 0.47 0.45 76.9 0 0 77.09 110.57
  Q 77.02 111.32 77.76 111.27
  Q 77.78 111.52 77.43 111.94
  Q 76.91 112.33 77.21 113.04
  Q 77.04 113.81 77.38 113.97
  Q 77.12 114.87 77.89 116.00
  Q 77.59 116.33 77.37 117.21
  Q 77.17 117.55 77.91 118.96
  Q 77.56 119.65 77.58 120.28
  Q 77.19 121.63 78.26 121.89
  Q 78.95 122.05 79.61 121.46
  Q 80.40 120.85 81.16 120.94
  L 101.97 113.32
  Q 102.48 113.13 102.03 112.83
  Q 101.72 112.62 101.39 112.79
  A 0.67 0.66 38.5 0 1 100.93 112.84
  L 87.26 109.53
  Q 87.23 108.91 87.51 108.68
  C 92.10 109.76 96.56 111.03 101.23 111.79
  Q 102.99 112.07 104.55 113.01
  Q 104.96 113.26 104.51 114.21
  Q 100.15 115.54 98.30 117.03
  Q 87.50 120.20 78.05 123.52
  C 76.89 123.93 75.88 123.55 74.69 123.60
  Q 73.53 123.65 72.27 123.40
  Q 64.40 121.86 56.48 120.57
  Q 55.35 120.38 54.01 120.56
  C 51.83 120.85 49.99 120.09 48.20 120.57
  Q 43.63 117.76 37.41 117.54
  L 27.88 115.73
  Q 27.92 115.28 28.13 115.13
  Q 28.40 114.92 28.65 114.88
  L 38.86 116.63
  L 55.42 118.88
  L 75.13 122.65
  Q 75.73 122.76 75.70 122.16
  L 75.43 115.52
  L 75.89 107.07
  L 75.82 104.20
  L 75.68 88.24
  Q 76.19 87.73 76.75 87.85
  Q 78.37 88.18 77.76 89.01
  Z"
/>
<path fill="#949495" d="
  M 130.30 90.01
  Q 130.58 90.96 130.24 92.18
  Q 130.04 92.88 130.00 92.15
  Q 129.94 91.19 130.06 90.03
  Q 130.12 89.40 130.30 90.01
  Z"
/>
<path fill="#828282" d="
  M 100.05 101.76
  Q 99.86 101.31 99.96 100.98
  Q 100.39 100.53 100.24 100.88
  C 102.92 99.41 104.63 98.54 107.75 98.37
  Q 108.13 98.35 108.17 97.98
  L 108.21 97.56
  Q 109.22 97.45 108.98 97.18
  L 113.27 99.92
  A 0.43 0.43 0.0 0 0 113.93 99.50
  L 112.70 91.21
  Q 115.57 90.20 117.77 91.88
  Q 118.13 92.15 118.10 92.60
  Q 117.83 96.46 117.14 99.30
  Q 116.05 103.75 111.81 103.36
  Q 109.05 103.11 106.37 101.99
  Q 105.94 101.81 105.57 102.08
  Q 103.73 103.42 101.57 103.37
  Q 100.95 103.36 100.96 102.73
  Q 100.99 101.63 100.05 101.76
  Z"
/>
<path fill="#fafafa" d="
  M 112.70 91.21
  L 113.93 99.50
  A 0.43 0.43 0.0 0 1 113.27 99.92
  L 108.98 97.18
  Q 108.42 94.80 108.98 92.11
  Q 109.08 91.62 109.57 91.57
  L 112.70 91.21
  Z"
/>
<path fill="#737373" d="
  M 25.16 92.01
  L 28.65 114.88
  Q 28.40 114.92 28.13 115.13
  Q 27.92 115.28 27.88 115.73
  Q 26.62 114.62 26.59 112.23
  Q 26.55 109.33 25.84 106.14
  Q 25.39 104.13 25.60 102.05
  A 0.71 0.71 0.0 0 0 24.53 101.37
  L 22.00 102.88
  Q 21.21 102.47 20.55 102.70
  L 24.94 100.06
  Q 25.39 99.78 25.33 99.26
  L 24.73 93.56
  Q 25.24 93.50 25.16 92.01
  Z"
/>
<path fill="#5c5a5a" d="
  M 50.10 96.20
  Q 47.06 97.05 44.94 100.91
  Q 44.25 97.37 46.58 96.09
  Q 48.11 95.25 50.10 96.20
  Z"
/>
<path fill="#696969" d="
  M 98.75 95.98
  L 101.04 96.43
  Q 100.31 96.41 100.00 96.59
  Q 99.83 96.70 99.86 96.90
  Q 99.90 97.25 100.25 97.26
  L 106.77 97.40
  L 98.64 97.86
  Q 98.10 97.89 97.84 98.36
  L 97.49 99.00
  Q 97.11 99.24 97.02 99.02
  Q 97.29 98.22 96.79 98.29
  Q 94.53 98.57 92.78 99.64
  L 92.58 98.70
  L 98.75 95.98
  Z"
/>
<path fill="#060606" d="
  M 50.10 96.20
  Q 53.84 97.81 52.08 101.40
  C 51.32 100.51 50.45 99.69 49.25 100.21
  Q 47.31 101.06 47.47 102.97
  Q 47.50 103.29 47.26 103.50
  Q 47.01 103.71 46.53 103.53
  Q 45.34 102.50 44.94 100.91
  Q 47.06 97.05 50.10 96.20
  Z"
/>
<path fill="#fafafa" d="
  M 106.77 97.40
  Q 107.33 97.22 108.21 97.56
  L 108.17 97.98
  Q 108.13 98.35 107.75 98.37
  C 104.63 98.54 102.92 99.41 100.24 100.88
  Q 99.53 100.12 98.75 100.13
  Q 98.21 100.14 97.59 100.83
  Q 96.88 101.63 96.52 101.79
  Q 95.52 102.24 95.11 101.54
  Q 95.88 100.49 97.03 99.80
  Q 97.55 99.48 97.49 99.00
  L 97.84 98.36
  Q 98.10 97.89 98.64 97.86
  L 106.77 97.40
  Z"
/>
<path fill="#c3c1c4" d="
  M 97.02 99.02
  Q 94.73 100.61 92.78 99.64
  Q 94.53 98.57 96.79 98.29
  Q 97.29 98.22 97.02 99.02
  Z"
/>
<path fill="#151515" d="
  M 92.58 98.70
  L 92.78 99.64
  Q 94.73 100.61 97.02 99.02
  Q 97.11 99.24 97.49 99.00
  Q 97.55 99.48 97.03 99.80
  Q 95.88 100.49 95.11 101.54
  L 92.19 100.80
  Q 91.74 100.69 91.65 100.24
  L 91.46 99.31
  L 92.58 98.70
  Z"
/>
<path fill="#5c5a5a" d="
  M 91.46 99.31
  L 91.65 100.24
  Q 91.74 100.69 92.19 100.80
  L 95.11 101.54
  Q 95.52 102.24 96.52 101.79
  Q 96.88 101.63 97.59 100.83
  Q 98.21 100.14 98.75 100.13
  Q 99.53 100.12 100.24 100.88
  Q 100.39 100.53 99.96 100.98
  Q 97.01 100.71 97.23 103.59
  L 102.47 104.30
  Q 102.12 104.62 101.59 104.81
  Q 100.32 104.91 99.68 104.38
  Q 99.29 104.05 98.79 104.12
  L 97.62 104.27
  C 93.16 102.57 89.65 103.25 85.40 102.34
  C 83.20 101.88 80.99 102.03 78.75 101.57
  Q 79.34 100.90 78.96 100.62
  Q 82.11 100.84 85.29 100.96
  C 87.17 101.03 88.51 101.89 90.41 101.01
  Q 90.99 100.73 90.74 100.16
  Q 90.55 99.74 90.93 99.48
  Q 91.14 99.33 91.46 99.31
  Z"
/>
<path fill="#828282" d="
  M 52.08 101.40
  Q 52.66 102.85 51.68 104.82
  Q 51.37 105.44 50.73 105.20
  Q 49.26 104.65 47.43 104.34
  Q 47.06 104.28 46.83 104.00
  Q 46.66 103.81 46.53 103.53
  Q 47.01 103.71 47.26 103.50
  Q 47.50 103.29 47.47 102.97
  Q 47.31 101.06 49.25 100.21
  C 50.45 99.69 51.32 100.51 52.08 101.40
  Z
  M 50.65 103.52
  Q 51.36 103.77 51.22 103.03
  Q 51.03 101.96 49.84 102.10
  A 0.40 0.40 0.0 0 0 49.56 102.73
  Q 49.95 103.27 50.65 103.52
  Z"
/>
<path fill="#fafafa" d="
  M 99.96 100.98
  Q 99.86 101.31 100.05 101.76
  Q 99.26 102.72 97.23 103.59
  Q 97.01 100.71 99.96 100.98
  Z"
/>
<path fill="#fafafa" d="
  M 27.88 115.73
  L 37.41 117.54
  Q 44.03 121.75 52.43 125.30
  Q 67.78 131.79 83.54 130.18
  Q 90.94 129.42 96.49 126.25
  Q 102.81 122.63 107.14 117.33
  Q 107.47 116.92 107.02 116.64
  Q 104.41 115.04 104.51 114.21
  Q 104.96 113.26 104.55 113.01
  Q 102.99 112.07 101.23 111.79
  C 96.56 111.03 92.10 109.76 87.51 108.68
  Q 84.02 107.72 80.51 106.84
  Q 78.91 106.44 77.53 106.74
  Q 77.29 106.90 77.10 106.66
  Q 76.98 106.50 76.97 106.30
  Q 76.89 104.27 76.86 102.03
  Q 76.86 101.43 77.46 101.40
  Q 78.12 101.36 78.75 101.57
  C 80.99 102.03 83.20 101.88 85.40 102.34
  C 89.65 103.25 93.16 102.57 97.62 104.27
  Q 99.97 105.88 101.59 104.81
  Q 102.12 104.62 102.47 104.30
  Q 106.42 103.94 110.27 104.43
  Q 115.41 105.10 115.53 105.11
  Q 132.78 106.68 150.00 108.72
  L 150.00 119.98
  L 132.32 138.68
  L 123.79 138.35
  L 99.98 135.19
  Q 98.39 134.30 96.81 134.39
  Q 94.92 134.47 93.23 133.96
  Q 91.26 133.16 89.22 133.43
  Q 88.26 133.56 86.25 132.83
  Q 84.89 132.33 83.03 132.90
  L 53.75 128.81
  Q 48.00 127.29 42.71 127.55
  L 0.00 121.85
  L 0.00 115.44
  L 11.05 109.03
  L 18.32 105.01
  L 22.00 102.88
  L 24.53 101.37
  A 0.71 0.71 0.0 0 1 25.60 102.05
  Q 25.39 104.13 25.84 106.14
  Q 26.55 109.33 26.59 112.23
  Q 26.62 114.62 27.88 115.73
  Z
  M 131.85 109.29
  Q 131.66 109.21 131.57 109.01
  Q 131.45 108.76 131.17 108.75
  L 121.00 108.38
  A 0.72 0.60 28.7 0 0 120.74 108.43
  Q 119.21 109.13 119.33 109.87
  A 1.15 1.14 -6.0 0 0 120.51 110.82
  Q 125.36 110.60 129.52 111.26
  Q 131.34 111.54 133.10 110.41
  Q 133.57 110.10 133.18 109.69
  Q 132.78 109.27 132.19 109.34
  Q 132.01 109.36 131.85 109.29
  Z
  M 112.64 127.53
  L 110.72 129.92
  A 0.79 0.79 0.0 0 0 111.34 131.20
  Q 116.10 131.14 121.03 131.09
  C 124.04 131.05 126.91 131.75 129.81 132.27
  A 2.10 2.09 -73.5 0 0 132.10 131.02
  L 136.71 120.13
  A 1.07 1.07 0.0 0 0 135.63 118.64
  L 130.88 119.08
  Q 129.51 119.21 130.51 118.27
  L 131.78 117.09
  A 0.96 0.96 0.0 0 0 131.35 115.46
  Q 123.55 113.57 116.24 113.04
  Q 115.78 113.01 115.42 113.30
  L 102.18 124.08
  Q 99.88 125.95 102.84 126.10
  C 106.18 126.27 109.38 125.65 112.51 127.01
  Q 112.91 127.19 112.64 127.53
  Z"
/>
<path fill="#fafafa" d="
  M 50.65 103.52
  Q 49.95 103.27 49.56 102.73
  A 0.40 0.40 0.0 0 1 49.84 102.10
  Q 51.03 101.96 51.22 103.03
  Q 51.36 103.77 50.65 103.52
  Z"
/>
<path fill="#5c5a5a" d="
  M 20.55 102.70
  Q 21.21 102.47 22.00 102.88
  L 18.32 105.01
  Q 18.48 104.62 18.24 104.10
  L 20.55 102.70
  Z"
/>
<path fill="#c3c1c4" d="
  M 60.12 103.71
  Q 59.22 107.06 55.99 108.83
  L 60.12 103.71
  Z"
/>
<path fill="#504d4e" d="
  M 18.24 104.10
  Q 18.48 104.62 18.32 105.01
  L 11.05 109.03
  Q 11.52 108.51 11.23 108.20
  L 18.24 104.10
  Z"
/>
<path fill="#c3c1c4" d="
  M 75.82 104.20
  L 75.89 107.07
  Q 74.91 105.72 75.82 104.20
  Z"
/>
<path fill="#c3c1c4" d="
  M 97.62 104.27
  L 98.79 104.12
  Q 99.29 104.05 99.68 104.38
  Q 100.32 104.91 101.59 104.81
  Q 99.97 105.88 97.62 104.27
  Z"
/>
<path fill="#696969" d="
  M 87.51 108.68
  Q 87.23 108.91 87.26 109.53
  L 84.22 109.00
  A 0.38 0.37 88.9 0 0 83.79 109.45
  Q 83.89 109.90 84.28 109.95
  A 0.37 0.37 0.0 0 1 84.46 110.61
  Q 82.75 111.98 80.74 113.23
  Q 80.51 113.38 80.53 113.65
  Q 80.54 113.93 80.96 114.18
  Q 81.34 114.77 80.77 114.81
  Q 80.74 114.66 80.68 114.56
  Q 80.57 114.37 80.38 114.46
  Q 78.07 115.52 77.38 113.97
  Q 77.04 113.81 77.21 113.04
  Q 78.02 113.70 79.01 113.03
  Q 79.73 112.54 78.89 112.32
  L 77.43 111.94
  Q 77.78 111.52 77.76 111.27
  Q 78.82 110.95 79.96 111.56
  Q 80.90 112.07 81.80 111.51
  L 82.42 111.12
  Q 83.36 110.54 82.37 110.05
  Q 80.65 109.19 78.55 109.42
  L 78.27 109.04
  Q 78.77 108.37 77.52 107.70
  Q 77.28 107.56 77.53 106.74
  Q 78.91 106.44 80.51 106.84
  Q 84.02 107.72 87.51 108.68
  Z"
/>
<path fill="#fafafa" d="
  M 77.52 107.70
  Q 78.77 108.37 78.27 109.04
  Q 77.75 109.25 77.41 109.19
  Q 77.05 109.12 76.98 108.61
  Q 76.88 107.84 77.52 107.70
  Z"
/>
<path fill="#31312f" d="
  M 11.23 108.20
  Q 11.52 108.51 11.05 109.03
  L 0.00 115.44
  L 0.00 114.69
  L 11.23 108.20
  Z"
/>
<path fill="#31312f" d="
  M 132.19 109.34
  Q 132.78 109.27 133.18 109.69
  Q 133.57 110.10 133.10 110.41
  Q 131.34 111.54 129.52 111.26
  Q 125.36 110.60 120.51 110.82
  A 1.15 1.14 -6.0 0 1 119.33 109.87
  Q 119.21 109.13 120.74 108.43
  A 0.72 0.60 28.7 0 1 121.00 108.38
  L 131.17 108.75
  Q 131.45 108.76 131.57 109.01
  Q 131.66 109.21 131.85 109.29
  Q 132.01 109.36 132.19 109.34
  Z
  M 129.7413 109.5766
  A 0.32 0.32 0.0 0 0 129.4292 109.2489
  L 120.5318 109.0314
  A 0.32 0.32 0.0 0 0 120.2041 109.3435
  L 120.1987 109.5634
  A 0.32 0.32 0.0 0 0 120.5108 109.8911
  L 129.4082 110.1086
  A 0.32 0.32 0.0 0 0 129.7359 109.7965
  L 129.7413 109.5766
  Z"
/>
<path fill="#fafafa" d="
  M 87.26 109.53
  L 100.93 112.84
  A 0.67 0.66 38.5 0 0 101.39 112.79
  Q 101.72 112.62 102.03 112.83
  Q 102.48 113.13 101.97 113.32
  L 81.16 120.94
  L 77.91 118.96
  Q 77.17 117.55 77.37 117.21
  L 82.89 119.05
  Q 83.85 119.37 83.16 118.62
  Q 82.15 117.54 80.52 117.33
  Q 79.51 117.20 80.31 116.57
  L 81.68 115.48
  Q 82.35 114.95 83.09 115.39
  Q 84.66 116.34 86.45 116.73
  Q 87.44 116.94 86.62 116.35
  Q 84.10 114.54 80.96 114.18
  Q 80.54 113.93 80.53 113.65
  Q 80.51 113.38 80.74 113.23
  Q 82.75 111.98 84.46 110.61
  A 0.37 0.37 0.0 0 0 84.28 109.95
  Q 83.89 109.90 83.79 109.45
  A 0.38 0.37 88.9 0 1 84.22 109.00
  L 87.26 109.53
  Z"
/>
<rect fill="#fafafa" x="-4.77" y="-0.43" transform="translate(124.97,109.57) rotate(1.4)" width="9.54" height="0.86" rx="0.32"/>
<path fill="#fafafa" d="
  M 77.76 111.27
  Q 77.02 111.32 77.09 110.57
  A 0.47 0.45 76.9 0 1 77.30 110.22
  L 78.55 109.42
  Q 80.65 109.19 82.37 110.05
  Q 83.36 110.54 82.42 111.12
  L 81.80 111.51
  Q 80.90 112.07 79.96 111.56
  Q 78.82 110.95 77.76 111.27
  Z"
/>
<path fill="#c3c1c4" d="
  M 52.50 111.54
  Q 50.24 114.05 47.24 114.28
  Q 49.53 112.51 52.50 111.54
  Z"
/>
<path fill="#c3c1c4" d="
  M 77.43 111.94
  L 78.89 112.32
  Q 79.73 112.54 79.01 113.03
  Q 78.02 113.70 77.21 113.04
  Q 76.91 112.33 77.43 111.94
  Z"
/>
<path fill="#5c5a5a" d="
  M 112.51 127.01
  C 109.38 125.65 106.18 126.27 102.84 126.10
  Q 99.88 125.95 102.18 124.08
  L 115.42 113.30
  Q 115.78 113.01 116.24 113.04
  Q 123.55 113.57 131.35 115.46
  A 0.96 0.96 0.0 0 1 131.78 117.09
  L 130.51 118.27
  Q 129.51 119.21 130.88 119.08
  L 135.63 118.64
  A 1.07 1.07 0.0 0 1 136.71 120.13
  L 132.10 131.02
  A 2.10 2.09 -73.5 0 1 129.81 132.27
  C 126.91 131.75 124.04 131.05 121.03 131.09
  Q 116.10 131.14 111.34 131.20
  A 0.79 0.79 0.0 0 1 110.72 129.92
  L 112.64 127.53
  Q 112.91 127.19 112.51 127.01
  Z
  M 115.10 114.81
  L 103.79 124.12
  Q 102.33 125.32 104.21 125.12
  Q 109.12 124.61 113.92 126.48
  C 115.86 127.23 117.69 126.85 119.65 127.32
  A 1.28 1.28 0.0 0 0 120.84 127.01
  Q 126.30 121.94 130.71 116.75
  Q 131.18 116.20 130.47 116.07
  Q 127.33 115.47 123.88 114.79
  C 121.18 114.27 118.82 114.45 116.17 114.43
  Q 115.56 114.43 115.10 114.81
  Z
  M 124.80 126.60
  A 0.47 0.47 0.0 0 1 124.17 127.18
  Q 122.59 126.49 121.63 127.96
  Q 120.62 129.50 119.13 128.42
  Q 118.47 127.94 117.55 127.98
  A 1.87 1.72 -58.0 0 0 116.82 128.18
  Q 115.38 128.90 114.12 128.13
  A 0.65 0.64 41.3 0 0 113.38 128.17
  Q 112.69 128.71 112.21 129.43
  Q 111.86 129.97 112.50 130.00
  Q 113.28 130.05 114.01 129.73
  Q 114.53 129.50 115.06 129.66
  C 117.40 130.34 119.63 129.81 122.02 130.06
  Q 126.02 130.50 129.92 131.56
  A 0.88 0.86 19.4 0 0 130.94 131.08
  L 135.24 121.32
  Q 135.86 119.92 134.32 120.01
  L 129.36 120.30
  Q 128.81 120.34 128.42 120.73
  L 123.65 125.56
  Q 123.05 126.16 123.90 126.09
  Q 124.60 126.04 124.80 126.60
  Z"
/>
<path fill="#fafafa" d="
  M 77.38 113.97
  Q 78.07 115.52 80.38 114.46
  Q 80.57 114.37 80.68 114.56
  Q 80.74 114.66 80.77 114.81
  Q 79.76 116.56 77.89 116.00
  Q 77.12 114.87 77.38 113.97
  Z"
/>
<path fill="#737373" d="
  M 104.51 114.21
  Q 104.41 115.04 107.02 116.64
  Q 107.47 116.92 107.14 117.33
  Q 102.81 122.63 96.49 126.25
  Q 90.94 129.42 83.54 130.18
  Q 67.78 131.79 52.43 125.30
  Q 44.03 121.75 37.41 117.54
  Q 43.63 117.76 48.20 120.57
  Q 54.62 124.09 61.77 125.96
  Q 82.65 131.40 98.30 117.03
  Q 100.15 115.54 104.51 114.21
  Z"
/>
<path fill="#504d4e" d="
  M 80.96 114.18
  Q 84.10 114.54 86.62 116.35
  Q 87.44 116.94 86.45 116.73
  Q 84.66 116.34 83.09 115.39
  Q 82.35 114.95 81.68 115.48
  L 80.31 116.57
  Q 79.51 117.20 80.52 117.33
  Q 82.15 117.54 83.16 118.62
  Q 83.85 119.37 82.89 119.05
  L 77.37 117.21
  Q 77.59 116.33 77.89 116.00
  Q 79.76 116.56 80.77 114.81
  Q 81.34 114.77 80.96 114.18
  Z"
/>
<path fill="#fafafa" d="
  M 103.79 124.12
  L 115.10 114.81
  Q 115.56 114.43 116.17 114.43
  C 118.82 114.45 121.18 114.27 123.88 114.79
  Q 127.33 115.47 130.47 116.07
  Q 131.18 116.20 130.71 116.75
  Q 126.30 121.94 120.84 127.01
  A 1.28 1.28 0.0 0 1 119.65 127.32
  C 117.69 126.85 115.86 127.23 113.92 126.48
  Q 109.12 124.61 104.21 125.12
  Q 102.33 125.32 103.79 124.12
  Z
  M 117.28 118.59
  Q 116.47 118.40 115.73 118.81
  Q 115.27 119.07 114.76 119.01
  L 111.53 118.64
  Q 110.86 118.57 110.75 119.23
  L 110.67 119.69
  A 0.53 0.53 0.0 0 0 111.22 120.31
  Q 117.77 119.98 123.05 121.55
  Q 123.73 121.75 123.45 121.10
  Q 123.21 120.53 122.62 120.32
  Q 121.49 119.90 120.10 119.63
  A 0.23 0.23 0.0 0 1 119.92 119.35
  L 119.99 119.09
  Q 120.03 118.90 120.22 118.95
  L 122.76 119.58
  A 0.36 0.35 -84.0 0 0 123.20 119.22
  L 123.18 118.83
  Q 123.17 118.59 122.93 118.54
  L 116.36 117.23
  A 0.19 0.19 0.0 0 0 116.14 117.41
  L 116.13 117.70
  Q 116.12 118.21 116.61 118.09
  Q 117.09 117.97 117.44 118.28
  Q 118.00 118.76 117.28 118.59
  Z
  M 118.93 124.17
  Q 118.99 123.86 119.23 123.73
  L 121.13 123.78
  Q 121.43 123.79 121.43 123.49
  L 121.43 123.13
  Q 121.44 122.80 121.11 122.78
  C 118.34 122.63 116.27 121.41 113.41 121.87
  Q 113.07 121.93 112.94 122.24
  L 112.80 122.56
  Q 112.64 122.94 112.23 122.89
  Q 109.95 122.62 107.12 122.79
  Q 106.43 122.84 106.02 123.32
  A 0.40 0.40 0.0 0 0 106.40 123.97
  Q 107.79 123.69 109.23 123.90
  Q 113.72 124.57 118.34 125.36
  Q 118.63 125.41 118.85 125.61
  L 119.11 125.82
  Q 119.86 126.46 119.73 125.48
  Q 119.65 124.84 118.93 124.17
  Z"
/>
<path fill="#31312f" d="
  M 75.43 115.52
  L 75.70 122.16
  Q 75.73 122.76 75.13 122.65
  L 55.42 118.88
  L 73.66 120.78
  A 0.82 0.82 0.0 0 0 74.56 119.84
  Q 74.24 117.63 75.43 115.52
  Z"
/>
<path fill="#292929" d="
  M 98.30 117.03
  Q 82.65 131.40 61.77 125.96
  Q 54.62 124.09 48.20 120.57
  C 49.99 120.09 51.83 120.85 54.01 120.56
  Q 55.35 120.38 56.48 120.57
  Q 64.40 121.86 72.27 123.40
  Q 73.53 123.65 74.69 123.60
  C 75.88 123.55 76.89 123.93 78.05 123.52
  Q 87.50 120.20 98.30 117.03
  Z"
/>
<path fill="#828282" d="
  M 117.44 118.28
  Q 117.09 117.97 116.61 118.09
  Q 116.12 118.21 116.13 117.70
  L 116.14 117.41
  A 0.19 0.19 0.0 0 1 116.36 117.23
  L 122.93 118.54
  Q 123.17 118.59 123.18 118.83
  L 123.20 119.22
  A 0.36 0.35 -84.0 0 1 122.76 119.58
  L 120.22 118.95
  Q 120.03 118.90 119.99 119.09
  L 119.92 119.35
  A 0.23 0.23 0.0 0 0 120.10 119.63
  Q 121.49 119.90 122.62 120.32
  Q 123.21 120.53 123.45 121.10
  Q 123.73 121.75 123.05 121.55
  Q 117.77 119.98 111.22 120.31
  A 0.53 0.53 0.0 0 1 110.67 119.69
  L 110.75 119.23
  Q 110.86 118.57 111.53 118.64
  L 114.76 119.01
  Q 115.27 119.07 115.73 118.81
  Q 116.47 118.40 117.28 118.59
  Q 118.00 118.76 117.44 118.28
  Z"
/>
<path fill="#696969" d="
  M 77.91 118.96
  L 81.16 120.94
  Q 80.40 120.85 79.61 121.46
  Q 79.20 120.60 77.58 120.28
  Q 77.56 119.65 77.91 118.96
  Z"
/>
<path fill="#fafafa" d="
  M 124.80 126.60
  Q 124.60 126.04 123.90 126.09
  Q 123.05 126.16 123.65 125.56
  L 128.42 120.73
  Q 128.81 120.34 129.36 120.30
  L 134.32 120.01
  Q 135.86 119.92 135.24 121.32
  L 130.94 131.08
  A 0.88 0.86 19.4 0 1 129.92 131.56
  Q 126.02 130.50 122.02 130.06
  C 119.63 129.81 117.40 130.34 115.06 129.66
  Q 114.53 129.50 114.01 129.73
  Q 113.28 130.05 112.50 130.00
  Q 111.86 129.97 112.21 129.43
  Q 112.69 128.71 113.38 128.17
  A 0.65 0.64 41.3 0 1 114.12 128.13
  Q 115.38 128.90 116.82 128.18
  A 1.87 1.72 -58.0 0 1 117.55 127.98
  Q 118.47 127.94 119.13 128.42
  Q 120.62 129.50 121.63 127.96
  Q 122.59 126.49 124.17 127.18
  A 0.47 0.47 0.0 0 0 124.80 126.60
  Z
  M 131.27 124.41
  L 126.08 124.08
  Q 126.01 124.07 125.99 124.14
  L 125.94 124.39
  Q 125.91 124.54 126.05 124.59
  Q 128.68 125.47 131.47 125.10
  Q 131.57 125.08 131.57 124.98
  L 131.56 124.70
  A 0.31 0.30 1.1 0 0 131.27 124.41
  Z
  M 131.5014 127.5615
  A 2.76 0.46 12.8 0 0 128.9119 126.5014
  A 2.76 0.46 12.8 0 0 126.1186 126.3385
  A 2.76 0.46 12.8 0 0 128.7081 127.3986
  A 2.76 0.46 12.8 0 0 131.5014 127.5615
  Z
  M 124.74 129.26
  Q 127.41 130.15 129.22 130.01
  A 0.27 0.27 0.0 0 0 129.30 129.49
  Q 127.52 128.71 124.72 128.77
  L 123.89 128.33
  Q 123.34 128.04 123.28 128.66
  Q 123.26 128.93 123.58 129.14
  Q 124.21 129.53 124.74 129.26
  Z"
/>
<path fill="#fafafa" d="
  M 77.58 120.28
  Q 79.20 120.60 79.61 121.46
  Q 78.95 122.05 78.26 121.89
  Q 77.19 121.63 77.58 120.28
  Z"
/>
<path fill="#040304" d="
  M 150.00 119.98
  L 150.00 123.90
  L 133.51 141.57
  A 2.18 2.15 25.0 0 1 131.63 142.24
  Q 105.25 138.67 81.25 135.60
  Q 73.30 134.59 66.23 133.60
  Q 34.25 129.14 3.25 125.24
  Q 2.17 125.11 1.10 125.13
  Q 0.61 125.15 0.38 124.70
  L 0.00 123.95
  L 0.00 121.85
  L 42.71 127.55
  L 53.75 128.81
  L 83.03 132.90
  L 90.44 133.98
  Q 92.99 135.05 95.73 134.55
  Q 97.85 135.73 99.98 135.19
  L 123.79 138.35
  Q 127.12 138.72 130.36 139.63
  Q 131.69 140.00 132.32 138.68
  L 150.00 119.98
  Z"
/>
<path fill="#828282" d="
  M 119.23 123.73
  Q 117.63 122.94 116.59 123.28
  Q 115.99 123.47 116.57 123.71
  Q 117.61 124.13 118.93 124.17
  Q 119.65 124.84 119.73 125.48
  Q 119.86 126.46 119.11 125.82
  L 118.85 125.61
  Q 118.63 125.41 118.34 125.36
  Q 113.72 124.57 109.23 123.90
  Q 107.79 123.69 106.40 123.97
  A 0.40 0.40 0.0 0 1 106.02 123.32
  Q 106.43 122.84 107.12 122.79
  Q 109.95 122.62 112.23 122.89
  Q 112.64 122.94 112.80 122.56
  L 112.94 122.24
  Q 113.07 121.93 113.41 121.87
  C 116.27 121.41 118.34 122.63 121.11 122.78
  Q 121.44 122.80 121.43 123.13
  L 121.43 123.49
  Q 121.43 123.79 121.13 123.78
  L 119.23 123.73
  Z"
/>
<path fill="#c3c1c4" d="
  M 119.23 123.73
  Q 118.99 123.86 118.93 124.17
  Q 117.61 124.13 116.57 123.71
  Q 115.99 123.47 116.59 123.28
  Q 117.63 122.94 119.23 123.73
  Z"
/>
<path fill="#504d4e" d="
  M 131.27 124.41
  A 0.31 0.30 1.1 0 1 131.56 124.70
  L 131.57 124.98
  Q 131.57 125.08 131.47 125.10
  Q 128.68 125.47 126.05 124.59
  Q 125.91 124.54 125.94 124.39
  L 125.99 124.14
  Q 126.01 124.07 126.08 124.08
  L 131.27 124.41
  Z"
/>
<ellipse fill="#504d4e" cx="0.00" cy="0.00" transform="translate(128.81,126.95) rotate(12.8)" rx="2.76" ry="0.46"/>
<path fill="#c3c1c4" d="
  M 53.75 128.81
  L 42.71 127.55
  Q 48.00 127.29 53.75 128.81
  Z"
/>
<path fill="#828282" d="
  M 124.72 128.77
  Q 124.78 129.03 124.74 129.26
  Q 124.21 129.53 123.58 129.14
  Q 123.26 128.93 123.28 128.66
  Q 123.34 128.04 123.89 128.33
  L 124.72 128.77
  Z"
/>
<path fill="#5c5a5a" d="
  M 124.72 128.77
  Q 127.52 128.71 129.30 129.49
  A 0.27 0.27 0.0 0 1 129.22 130.01
  Q 127.41 130.15 124.74 129.26
  Q 124.78 129.03 124.72 128.77
  Z"
/>
<path fill="#949495" d="
  M 83.03 132.90
  Q 84.89 132.33 86.25 132.83
  Q 88.26 133.56 89.22 133.43
  Q 91.26 133.16 93.23 133.96
  L 90.44 133.98
  L 83.03 132.90
  Z"
/>
<path fill="#828282" d="
  M 90.44 133.98
  L 93.23 133.96
  Q 94.92 134.47 96.81 134.39
  Q 96.28 134.57 95.73 134.55
  Q 92.99 135.05 90.44 133.98
  Z"
/>
<path fill="#737373" d="
  M 95.73 134.55
  Q 96.28 134.57 96.81 134.39
  Q 98.39 134.30 99.98 135.19
  Q 97.85 135.73 95.73 134.55
  Z"
/>
<path fill="#828282" d="
  M 123.79 138.35
  L 132.32 138.68
  Q 131.69 140.00 130.36 139.63
  Q 127.12 138.72 123.79 138.35
  Z"
/>
</svg>
