<?xml version="1.0" encoding="UTF-8" standalone="no"?>
<!DOCTYPE svg PUBLIC "-//W3C//DTD SVG 1.1//EN" "http://www.w3.org/Graphics/SVG/1.1/DTD/svg11.dtd">
<svg xmlns="http://www.w3.org/2000/svg" version="1.1" viewBox="0.00 0.00 150.00 150.00">
<path fill="#040404" d="
  M 87.13 24.19
  A 12.22 12.22 0.0 0 1 74.91 36.41
  A 12.22 12.22 0.0 0 1 62.69 24.19
  A 12.22 12.22 0.0 0 1 74.91 11.97
  A 12.22 12.22 0.0 0 1 87.13 24.19
  Z
  M 83.04 24.19
  A 8.17 8.17 0.0 0 0 74.87 16.02
  A 8.17 8.17 0.0 0 0 66.70 24.19
  A 8.17 8.17 0.0 0 0 74.87 32.36
  A 8.17 8.17 0.0 0 0 83.04 24.19
  Z"
/>
<path fill="#040404" d="
  M 74.13 94.83
  Q 72.94 96.83 72.56 98.87
  Q 69.87 113.30 66.60 131.69
  C 65.78 136.29 61.39 138.98 56.86 137.98
  C 52.12 136.94 49.99 132.56 50.81 128.00
  Q 55.16 103.86 59.30 80.33
  C 60.18 75.28 60.70 70.04 60.14 64.91
  Q 59.71 61.02 56.49 60.95
  Q 45.21 60.70 34.09 60.89
  Q 29.81 60.96 27.68 59.57
  C 20.83 55.11 24.10 44.57 32.57 44.59
  Q 72.31 44.71 116.19 44.54
  Q 119.57 44.53 121.64 45.63
  C 126.90 48.43 127.20 56.35 122.16 59.60
  Q 120.17 60.88 117.22 60.87
  Q 104.17 60.79 94.09 60.86
  Q 89.82 60.89 89.57 65.49
  Q 89.17 72.77 90.50 80.27
  Q 94.88 104.88 99.11 128.69
  C 100.12 134.39 95.14 139.28 89.40 138.00
  Q 84.14 136.82 83.07 131.02
  Q 80.25 115.79 77.64 100.40
  Q 77.14 97.44 75.69 94.85
  A 0.90 0.90 0.0 0 0 74.13 94.83
  Z
  M 87.23 60.18
  Q 89.73 56.84 93.57 56.83
  Q 105.30 56.83 117.85 56.68
  Q 121.53 56.64 121.59 52.69
  Q 121.59 52.61 121.59 52.53
  Q 121.45 48.60 117.40 48.60
  Q 75.30 48.60 32.49 48.58
  Q 28.37 48.58 28.18 52.51
  Q 28.18 52.59 28.18 52.67
  Q 28.24 56.60 31.83 56.66
  Q 42.52 56.85 51.79 56.75
  Q 57.61 56.68 59.66 57.69
  Q 63.82 59.72 64.21 65.25
  Q 64.66 71.62 63.91 76.25
  Q 60.06 99.85 54.69 129.14
  Q 54.07 132.54 57.80 134.10
  Q 57.89 134.14 58.00 134.15
  Q 62.13 134.57 62.87 130.17
  Q 65.58 113.94 68.37 98.78
  Q 69.08 94.95 71.07 92.33
  Q 73.14 89.59 76.44 90.63
  Q 78.53 91.29 79.67 93.65
  Q 80.92 96.25 81.40 98.81
  Q 84.15 113.75 87.16 130.83
  Q 87.82 134.56 91.78 134.00
  Q 91.87 133.99 91.95 133.96
  Q 95.78 132.90 95.08 129.05
  Q 90.48 103.86 86.41 79.70
  Q 85.70 75.47 85.51 71.35
  Q 85.33 67.20 85.91 63.36
  Q 86.18 61.58 87.23 60.18
  Z"
/>
</svg>
