<?xml version="1.0" encoding="UTF-8" standalone="no"?>
<!DOCTYPE svg PUBLIC "-//W3C//DTD SVG 1.1//EN" "http://www.w3.org/Graphics/SVG/1.1/DTD/svg11.dtd">
<svg xmlns="http://www.w3.org/2000/svg" version="1.1" viewBox="0.00 0.00 150.00 150.00">
<g stroke-width="1.80" fill="none" stroke-linecap="butt">
<path stroke="#808080" vector-effect="non-scaling-stroke" d="
  M 75.58 28.36
  C 73.73 27.62 71.62 26.40 71.18 24.56
  Q 70.99 23.80 70.51 23.21
  Q 70.03 22.62 69.91 23.37
  C 69.56 25.54 70.45 28.27 72.77 28.83
  Q 73.83 29.09 74.77 29.65
  Q 75.35 29.99 75.70 29.42
  L 75.85 29.16
  Q 76.19 28.60 75.58 28.36"
/>
<path stroke="#808080" vector-effect="non-scaling-stroke" d="
  M 77.21 46.67
  C 71.53 46.48 67.14 43.17 65.34 37.63
  Q 65.13 37.00 64.66 37.47
  Q 59.00 43.12 59.53 49.50
  A 0.66 0.66 0.0 0 0 60.18 50.10
  L 89.27 50.19
  A 1.22 1.22 0.0 0 0 90.49 48.98
  L 90.49 47.99
  Q 90.50 46.71 89.21 46.73
  Q 82.92 46.86 77.21 46.67"
/>
<path stroke="#808080" vector-effect="non-scaling-stroke" d="
  M 69.74 78.27
  L 76.98 78.26
  Q 77.48 78.26 77.48 77.77
  L 77.52 72.96
  A 0.56 0.55 -0.0 0 0 76.96 72.41
  L 64.51 72.37
  Q 63.97 72.37 63.61 71.97
  Q 61.98 70.14 62.07 67.83
  Q 62.10 67.10 61.51 67.52
  Q 59.06 69.28 56.52 71.32
  Q 54.65 72.83 52.43 72.32
  A 0.46 0.45 6.6 0 0 51.87 72.76
  L 51.88 87.94
  Q 51.88 88.50 52.44 88.50
  L 66.63 88.49
  Q 67.25 88.49 67.25 87.87
  L 67.25 80.76
  A 2.49 2.49 0.0 0 1 69.74 78.27"
/>
<path stroke="#808080" vector-effect="non-scaling-stroke" d="
  M 78.09 90.92
  Q 77.35 87.97 76.12 85.21
  Q 75.71 84.29 75.80 83.27
  Q 75.86 82.69 75.28 82.67
  L 73.01 82.61
  Q 72.37 82.59 72.37 83.23
  L 72.37 98.05
  Q 72.37 98.72 73.05 98.72
  L 85.61 98.74
  Q 86.27 98.74 86.78 99.14
  L 91.82 103.04
  A 0.61 0.61 0.0 0 0 92.81 102.57
  Q 92.90 99.67 94.91 98.57
  Q 95.81 98.09 94.79 98.10
  Q 87.04 98.21 81.13 93.31
  Q 80.71 92.96 80.17 92.86
  Q 78.50 92.53 78.09 90.92"
/>
<path stroke="#808080" vector-effect="non-scaling-stroke" d="
  M 34.79 110.42
  L 31.48 108.78
  Q 30.95 108.52 30.76 107.95
  Q 30.30 106.54 29.64 105.28
  Q 29.19 104.43 28.99 105.37
  Q 27.98 110.21 33.86 111.58
  Q 34.48 111.73 34.78 111.18
  L 34.94 110.89
  A 0.34 0.34 0.0 0 0 34.79 110.42"
/>
<path stroke="#808080" vector-effect="non-scaling-stroke" d="
  M 23.49 119.49
  C 20.34 122.98 17.91 126.89 18.73 131.70
  Q 18.82 132.19 19.31 132.19
  L 48.45 132.07
  Q 49.48 132.07 49.48 131.05
  L 49.49 129.72
  Q 49.50 128.83 48.60 128.79
  Q 44.20 128.63 39.62 128.81
  C 32.51 129.09 26.72 126.88 24.44 119.69
  A 0.56 0.56 0.0 0 0 23.49 119.49"
/>
<path stroke="#808080" vector-effect="non-scaling-stroke" d="
  M 113.95 109.03
  C 112.63 108.25 112.32 106.80 111.74 105.49
  Q 111.20 104.28 110.95 105.58
  Q 110.45 108.20 112.27 109.99
  C 113.25 110.96 114.53 110.84 115.66 111.63
  Q 116.31 112.08 116.68 111.39
  L 116.84 111.09
  A 0.60 0.60 0.0 0 0 116.51 110.24
  Q 115.23 109.78 113.95 109.03"
/>
<path stroke="#808080" vector-effect="non-scaling-stroke" d="
  M 105.51 119.47
  C 102.44 122.90 99.93 126.83 100.69 131.46
  A 0.79 0.78 85.2 0 0 101.46 132.12
  L 130.46 132.15
  A 1.01 1.01 0.0 0 0 131.47 131.16
  L 131.49 129.73
  Q 131.51 128.81 130.58 128.78
  C 121.49 128.51 110.04 131.16 106.41 119.67
  A 0.54 0.53 57.0 0 0 105.51 119.47"
/>
</g>
<path fill="#000000" d="
  M 66.90 29.85
  C 62.13 23.68 65.71 14.86 73.38 13.67
  C 80.79 12.52 86.42 18.84 84.96 26.15
  C 84.67 27.60 83.81 28.63 83.18 29.95
  Q 82.91 30.52 83.47 30.81
  Q 96.22 37.28 95.47 52.00
  Q 95.33 54.62 92.50 54.65
  Q 74.11 54.81 57.37 54.54
  Q 54.52 54.49 54.45 51.68
  Q 54.09 36.97 66.70 30.72
  Q 67.33 30.41 66.90 29.85
  Z
  M 75.58 28.36
  C 73.73 27.62 71.62 26.40 71.18 24.56
  Q 70.99 23.80 70.51 23.21
  Q 70.03 22.62 69.91 23.37
  C 69.56 25.54 70.45 28.27 72.77 28.83
  Q 73.83 29.09 74.77 29.65
  Q 75.35 29.99 75.70 29.42
  L 75.85 29.16
  Q 76.19 28.60 75.58 28.36
  Z
  M 77.21 46.67
  C 71.53 46.48 67.14 43.17 65.34 37.63
  Q 65.13 37.00 64.66 37.47
  Q 59.00 43.12 59.53 49.50
  A 0.66 0.66 0.0 0 0 60.18 50.10
  L 89.27 50.19
  A 1.22 1.22 0.0 0 0 90.49 48.98
  L 90.49 47.99
  Q 90.50 46.71 89.21 46.73
  Q 82.92 46.86 77.21 46.67
  Z"
/>
<path fill="#000000" d="
  M 52.92 23.11
  Q 42.04 28.25 36.00 34.38
  Q 13.02 57.68 20.62 90.38
  Q 21.20 92.87 18.65 93.09
  L 18.15 93.13
  Q 16.39 93.27 15.87 91.59
  Q 14.05 85.70 13.72 79.96
  Q 12.08 52.09 30.84 32.39
  Q 38.89 23.94 49.98 19.02
  Q 52.12 18.07 53.45 20.00
  Q 53.92 20.67 53.89 21.62
  A 1.71 1.68 78.4 0 1 52.92 23.11
  Z"
/>
<path fill="#000000" d="
  M 99.75 18.98
  Q 105.75 21.52 109.95 24.54
  C 131.38 39.96 140.96 65.43 134.34 91.12
  Q 133.72 93.52 131.29 93.11
  Q 130.90 93.04 130.54 92.85
  Q 128.85 91.91 129.34 90.04
  C 135.74 65.37 125.96 40.53 104.54 27.09
  C 102.04 25.52 99.37 24.52 96.97 22.85
  Q 95.52 21.84 96.44 20.33
  L 96.66 19.97
  Q 97.78 18.15 99.75 18.98
  Z"
/>
<path fill="#ffffff" d="
  M 75.58 28.36
  Q 76.19 28.60 75.85 29.16
  L 75.70 29.42
  Q 75.35 29.99 74.77 29.65
  Q 73.83 29.09 72.77 28.83
  C 70.45 28.27 69.56 25.54 69.91 23.37
  Q 70.03 22.62 70.51 23.21
  Q 70.99 23.80 71.18 24.56
  C 71.62 26.40 73.73 27.62 75.58 28.36
  Z"
/>
<path fill="#ffffff" d="
  M 65.34 37.63
  C 67.14 43.17 71.53 46.48 77.21 46.67
  Q 82.92 46.86 89.21 46.73
  Q 90.50 46.71 90.49 47.99
  L 90.49 48.98
  A 1.22 1.22 0.0 0 1 89.27 50.19
  L 60.18 50.10
  A 0.66 0.66 0.0 0 1 59.53 49.50
  Q 59.00 43.12 64.66 37.47
  Q 65.13 37.00 65.34 37.63
  Z"
/>
<path fill="#000000" d="
  M 98.01 103.89
  L 97.98 108.74
  A 2.23 2.23 0.0 0 1 95.94 110.95
  Q 94.86 111.04 93.98 110.43
  Q 89.38 107.28 85.35 103.92
  A 2.91 2.88 64.8 0 0 83.49 103.24
  L 69.50 103.24
  A 2.24 2.24 0.0 0 1 67.26 101.00
  L 67.25 93.50
  Q 67.25 93.00 66.75 93.00
  L 49.00 93.01
  A 2.26 2.25 -90.0 0 1 46.75 90.75
  L 46.75 69.85
  A 2.47 2.47 0.0 0 1 49.15 67.38
  L 53.56 67.26
  Q 54.12 67.25 54.55 66.88
  Q 59.10 62.92 63.57 60.21
  C 65.48 59.05 67.30 60.44 67.24 62.53
  Q 67.19 64.74 67.24 66.80
  A 0.53 0.52 88.9 0 0 67.77 67.32
  L 80.07 67.29
  A 2.54 2.53 89.8 0 1 82.61 69.82
  L 82.63 76.93
  A 0.67 0.66 -0.0 0 0 83.30 77.59
  L 100.71 77.55
  A 2.41 2.40 89.9 0 1 103.12 79.96
  L 103.12 101.25
  A 1.91 1.91 0.0 0 1 101.28 103.16
  L 98.61 103.27
  A 0.62 0.62 0.0 0 0 98.01 103.89
  Z
  M 69.74 78.27
  L 76.98 78.26
  Q 77.48 78.26 77.48 77.77
  L 77.52 72.96
  A 0.56 0.55 -0.0 0 0 76.96 72.41
  L 64.51 72.37
  Q 63.97 72.37 63.61 71.97
  Q 61.98 70.14 62.07 67.83
  Q 62.10 67.10 61.51 67.52
  Q 59.06 69.28 56.52 71.32
  Q 54.65 72.83 52.43 72.32
  A 0.46 0.45 6.6 0 0 51.87 72.76
  L 51.88 87.94
  Q 51.88 88.50 52.44 88.50
  L 66.63 88.49
  Q 67.25 88.49 67.25 87.87
  L 67.25 80.76
  A 2.49 2.49 0.0 0 1 69.74 78.27
  Z
  M 78.09 90.92
  Q 77.35 87.97 76.12 85.21
  Q 75.71 84.29 75.80 83.27
  Q 75.86 82.69 75.28 82.67
  L 73.01 82.61
  Q 72.37 82.59 72.37 83.23
  L 72.37 98.05
  Q 72.37 98.72 73.05 98.72
  L 85.61 98.74
  Q 86.27 98.74 86.78 99.14
  L 91.82 103.04
  A 0.61 0.61 0.0 0 0 92.81 102.57
  Q 92.90 99.67 94.91 98.57
  Q 95.81 98.09 94.79 98.10
  Q 87.04 98.21 81.13 93.31
  Q 80.71 92.96 80.17 92.86
  Q 78.50 92.53 78.09 90.92
  Z"
/>
<path fill="#ffffff" d="
  M 69.74 78.27
  A 2.49 2.49 0.0 0 0 67.25 80.76
  L 67.25 87.87
  Q 67.25 88.49 66.63 88.49
  L 52.44 88.50
  Q 51.88 88.50 51.88 87.94
  L 51.87 72.76
  A 0.46 0.45 6.6 0 1 52.43 72.32
  Q 54.65 72.83 56.52 71.32
  Q 59.06 69.28 61.51 67.52
  Q 62.10 67.10 62.07 67.83
  Q 61.98 70.14 63.61 71.97
  Q 63.97 72.37 64.51 72.37
  L 76.96 72.41
  A 0.56 0.55 -0.0 0 1 77.52 72.96
  L 77.48 77.77
  Q 77.48 78.26 76.98 78.26
  L 69.74 78.27
  Z"
/>
<path fill="#ffffff" d="
  M 78.09 90.92
  Q 78.50 92.53 80.17 92.86
  Q 80.71 92.96 81.13 93.31
  Q 87.04 98.21 94.79 98.10
  Q 95.81 98.09 94.91 98.57
  Q 92.90 99.67 92.81 102.57
  A 0.61 0.61 0.0 0 1 91.82 103.04
  L 86.78 99.14
  Q 86.27 98.74 85.61 98.74
  L 73.05 98.72
  Q 72.37 98.72 72.37 98.05
  L 72.37 83.23
  Q 72.37 82.59 73.01 82.61
  L 75.28 82.67
  Q 75.86 82.69 75.80 83.27
  Q 75.71 84.29 76.12 85.21
  Q 77.35 87.97 78.09 90.92
  Z"
/>
<path fill="#000000" d="
  M 25.88 112.00
  Q 21.32 105.15 26.26 99.06
  C 30.71 93.56 39.60 94.57 42.99 100.89
  Q 45.89 106.30 42.25 111.74
  Q 41.79 112.42 42.52 112.79
  Q 55.42 119.37 54.43 134.61
  Q 54.31 136.50 52.00 136.52
  Q 33.52 136.67 16.25 136.55
  Q 13.78 136.53 13.56 134.16
  Q 12.64 124.19 19.48 117.08
  Q 22.32 114.13 25.62 112.84
  A 0.57 0.56 -27.8 0 0 25.88 112.00
  Z
  M 34.79 110.42
  L 31.48 108.78
  Q 30.95 108.52 30.76 107.95
  Q 30.30 106.54 29.64 105.28
  Q 29.19 104.43 28.99 105.37
  Q 27.98 110.21 33.86 111.58
  Q 34.48 111.73 34.78 111.18
  L 34.94 110.89
  A 0.34 0.34 0.0 0 0 34.79 110.42
  Z
  M 23.49 119.49
  C 20.34 122.98 17.91 126.89 18.73 131.70
  Q 18.82 132.19 19.31 132.19
  L 48.45 132.07
  Q 49.48 132.07 49.48 131.05
  L 49.49 129.72
  Q 49.50 128.83 48.60 128.79
  Q 44.20 128.63 39.62 128.81
  C 32.51 129.09 26.72 126.88 24.44 119.69
  A 0.56 0.56 0.0 0 0 23.49 119.49
  Z"
/>
<path fill="#000000" d="
  M 107.87 111.91
  C 105.87 109.18 104.89 105.24 106.56 102.13
  C 107.29 100.77 107.63 99.23 108.88 98.23
  Q 115.21 93.18 121.75 97.30
  C 125.36 99.56 127.54 105.08 125.54 109.33
  Q 124.92 110.64 124.22 111.90
  Q 123.88 112.50 124.50 112.81
  Q 136.86 119.02 136.56 133.63
  Q 136.49 136.71 133.51 136.69
  Q 116.66 136.62 98.02 136.63
  A 2.43 2.42 -3.5 0 1 95.61 134.50
  Q 94.30 123.55 102.79 115.80
  Q 104.87 113.91 107.58 112.88
  A 0.64 0.64 0.0 0 0 107.87 111.91
  Z
  M 113.95 109.03
  C 112.63 108.25 112.32 106.80 111.74 105.49
  Q 111.20 104.28 110.95 105.58
  Q 110.45 108.20 112.27 109.99
  C 113.25 110.96 114.53 110.84 115.66 111.63
  Q 116.31 112.08 116.68 111.39
  L 116.84 111.09
  A 0.60 0.60 0.0 0 0 116.51 110.24
  Q 115.23 109.78 113.95 109.03
  Z
  M 105.51 119.47
  C 102.44 122.90 99.93 126.83 100.69 131.46
  A 0.79 0.78 85.2 0 0 101.46 132.12
  L 130.46 132.15
  A 1.01 1.01 0.0 0 0 131.47 131.16
  L 131.49 129.73
  Q 131.51 128.81 130.58 128.78
  C 121.49 128.51 110.04 131.16 106.41 119.67
  A 0.54 0.53 57.0 0 0 105.51 119.47
  Z"
/>
<path fill="#ffffff" d="
  M 34.79 110.42
  A 0.34 0.34 0.0 0 1 34.94 110.89
  L 34.78 111.18
  Q 34.48 111.73 33.86 111.58
  Q 27.98 110.21 28.99 105.37
  Q 29.19 104.43 29.64 105.28
  Q 30.30 106.54 30.76 107.95
  Q 30.95 108.52 31.48 108.78
  L 34.79 110.42
  Z"
/>
<path fill="#ffffff" d="
  M 113.95 109.03
  Q 115.23 109.78 116.51 110.24
  A 0.60 0.60 0.0 0 1 116.84 111.09
  L 116.68 111.39
  Q 116.31 112.08 115.66 111.63
  C 114.53 110.84 113.25 110.96 112.27 109.99
  Q 110.45 108.20 110.95 105.58
  Q 111.20 104.28 111.74 105.49
  C 112.32 106.80 112.63 108.25 113.95 109.03
  Z"
/>
<path fill="#ffffff" d="
  M 18.73 131.70
  C 17.91 126.89 20.34 122.98 23.49 119.49
  A 0.56 0.56 0.0 0 1 24.44 119.69
  C 26.72 126.88 32.51 129.09 39.62 128.81
  Q 44.20 128.63 48.60 128.79
  Q 49.50 128.83 49.49 129.72
  L 49.48 131.05
  Q 49.48 132.07 48.45 132.07
  L 19.31 132.19
  Q 18.82 132.19 18.73 131.70
  Z"
/>
<path fill="#ffffff" d="
  M 100.69 131.46
  C 99.93 126.83 102.44 122.90 105.51 119.47
  A 0.54 0.53 57.0 0 1 106.41 119.67
  C 110.04 131.16 121.49 128.51 130.58 128.78
  Q 131.51 128.81 131.49 129.73
  L 131.47 131.16
  A 1.01 1.01 0.0 0 1 130.46 132.15
  L 101.46 132.12
  A 0.79 0.78 85.2 0 1 100.69 131.46
  Z"
/>
<path fill="#000000" d="
  M 88.09 135.12
  Q 74.87 138.21 61.29 135.02
  A 2.06 2.06 0.0 0 1 59.77 133.59
  Q 59.47 132.56 59.77 131.72
  Q 60.49 129.78 62.53 130.12
  C 71.04 131.51 78.20 132.19 87.06 130.18
  A 2.31 2.30 -13.9 0 1 89.79 131.82
  L 89.87 132.12
  A 2.42 2.42 0.0 0 1 88.09 135.12
  Z"
/>
</svg>
