<?xml version="1.0" encoding="UTF-8" standalone="no"?>
<!DOCTYPE svg PUBLIC "-//W3C//DTD SVG 1.1//EN" "http://www.w3.org/Graphics/SVG/1.1/DTD/svg11.dtd">
<svg xmlns="http://www.w3.org/2000/svg" version="1.1" viewBox="0.00 0.00 150.00 150.00">
<g stroke-width="1.80" fill="none" stroke-linecap="butt">
<path stroke="#808080" vector-effect="non-scaling-stroke" d="
  M 94.17 18.90
  Q 93.48 19.89 92.49 20.44
  Q 92.05 20.68 91.56 20.55
  Q 60.02 11.75 36.59 33.59
  Q 34.28 35.74 32.45 38.65
  Q 32.04 39.30 32.79 39.44
  C 41.84 41.16 51.35 42.92 60.65 43.29
  Q 65.54 43.49 69.92 43.66
  Q 75.42 43.87 81.05 43.67
  Q 86.78 43.46 92.10 42.99
  Q 101.38 42.16 115.26 39.53
  Q 117.58 39.10 118.52 35.60"
/>
<path stroke="#0d0d0d" stroke-opacity="0.627" vector-effect="non-scaling-stroke" d="
  M 105.63 120.93
  Q 93.04 128.63 78.72 129.70"
/>
<path stroke="#28292b" stroke-opacity="0.973" vector-effect="non-scaling-stroke" d="
  M 78.72 129.70
  L 70.13 129.71"
/>
<path stroke="#0d0d0d" stroke-opacity="0.627" vector-effect="non-scaling-stroke" d="
  M 70.13 129.71
  Q 56.29 128.31 45.18 121.96"
/>
<path stroke="#808080" vector-effect="non-scaling-stroke" d="
  M 103.47 23.40
  Q 104.04 23.48 104.10 24.09
  Q 104.15 24.52 103.92 24.89
  Q 103.75 25.17 103.64 25.47
  A 0.82 0.81 -61.5 0 0 103.91 26.39
  L 107.07 28.82
  A 0.68 0.68 0.0 0 0 108.10 28.57
  Q 108.62 27.45 109.68 27.25"
/>
<path stroke="#808080" vector-effect="non-scaling-stroke" d="
  M 49.42 119.44
  Q 70.23 129.95 90.93 123.06
  Q 108.59 117.19 118.42 102.89
  Q 134.97 78.81 124.21 50.57
  Q 123.58 48.92 121.89 49.41
  Q 115.31 51.30 108.53 52.43
  Q 99.36 53.95 90.56 54.65
  Q 82.58 55.29 64.95 54.95
  Q 55.80 54.78 46.77 53.47
  Q 36.78 52.02 28.84 50.09
  Q 27.67 49.81 26.66 49.39
  A 1.06 1.05 -66.7 0 0 25.29 49.94
  Q 20.65 60.55 20.93 73.40
  Q 21.02 77.26 21.40 79.66
  Q 25.18 103.77 46.07 117.52
  Q 47.54 118.49 49.42 119.44"
/>
<path stroke="#808080" vector-effect="non-scaling-stroke" d="
  M 47.85 57.91
  C 44.67 58.18 45.14 66.88 39.33 67.27
  Q 37.01 67.42 34.79 67.51
  Q 32.14 67.62 33.80 69.70
  Q 35.33 71.61 38.75 70.73
  Q 46.06 68.85 48.40 61.17
  Q 48.77 59.96 48.71 58.66
  A 0.79 0.79 0.0 0 0 47.85 57.91"
/>
<path stroke="#808080" vector-effect="non-scaling-stroke" d="
  M 107.16 66.54
  Q 103.55 64.16 102.38 59.04
  Q 102.13 57.92 100.97 57.98
  L 100.61 58.00
  A 1.01 1.01 0.0 0 0 99.67 59.17
  Q 101.25 68.59 109.83 70.74
  Q 112.56 71.42 114.66 69.97
  Q 115.15 69.63 115.27 69.06
  Q 115.47 68.10 114.87 67.56
  Q 114.34 67.09 113.62 67.24
  Q 109.49 68.08 107.16 66.54"
/>
<path stroke="#808080" vector-effect="non-scaling-stroke" d="
  M 49.37 69.96
  C 44.97 71.32 42.91 74.39 45.30 78.81
  A 0.61 0.60 -31.5 0 0 46.18 79.02
  Q 49.68 76.57 53.26 78.70
  A 1.41 1.41 0.0 0 0 55.35 77.84
  Q 56.92 71.79 50.40 69.94
  Q 49.88 69.80 49.37 69.96"
/>
<path stroke="#808080" vector-effect="non-scaling-stroke" d="
  M 97.69 69.93
  Q 91.66 71.93 93.44 78.33
  Q 93.77 79.51 94.81 78.86
  C 96.74 77.63 99.59 77.17 101.57 78.53
  Q 102.15 78.93 102.84 79.00
  Q 103.42 79.06 103.55 78.50
  Q 105.22 71.40 98.76 69.88
  A 1.97 1.87 40.9 0 0 97.69 69.93"
/>
<path stroke="#808080" vector-effect="non-scaling-stroke" d="
  M 49.00 83.01
  C 48.72 82.58 48.81 82.10 48.67 81.68
  A 0.84 0.84 0.0 0 0 47.13 81.56
  Q 45.82 84.04 46.19 86.91
  A 1.39 1.38 64.5 0 0 48.52 87.74
  Q 50.71 85.67 49.00 83.01"
/>
<path stroke="#808080" vector-effect="non-scaling-stroke" d="
  M 79.01 97.27
  Q 81.95 98.76 84.16 101.42
  A 1.39 1.38 77.1 0 0 84.89 101.88
  Q 87.14 102.43 86.23 99.73
  A 1.95 1.85 15.4 0 0 85.82 99.05
  C 80.50 93.44 74.55 91.53 67.63 96.33
  Q 65.36 97.91 63.80 99.85
  A 1.03 1.01 61.6 0 0 63.59 100.58
  Q 63.67 101.26 64.10 101.53
  Q 65.40 102.36 66.42 101.21
  C 69.52 97.68 74.31 94.88 79.01 97.27"
/>
</g>
<path fill="#000000" d="
  M 94.17 18.90
  Q 93.48 19.89 92.49 20.44
  Q 92.05 20.68 91.56 20.55
  Q 60.02 11.75 36.59 33.59
  Q 34.28 35.74 32.45 38.65
  Q 32.04 39.30 32.79 39.44
  C 41.84 41.16 51.35 42.92 60.65 43.29
  Q 65.54 43.49 69.92 43.66
  Q 75.42 43.87 81.05 43.67
  Q 86.78 43.46 92.10 42.99
  Q 101.38 42.16 115.26 39.53
  Q 117.58 39.10 118.52 35.60
  Q 121.73 36.98 124.81 42.47
  Q 136.70 63.68 130.93 86.25
  Q 125.37 108.01 105.63 120.93
  Q 93.04 128.63 78.72 129.70
  L 70.13 129.71
  Q 56.29 128.31 45.18 121.96
  Q 42.68 120.22 40.58 118.80
  Q 37.99 117.05 35.99 115.24
  C 19.61 100.43 12.46 77.73 18.70 56.23
  Q 20.09 51.46 21.75 46.77
  C 23.71 41.22 27.78 36.97 31.66 32.70
  Q 43.62 19.54 61.64 15.17
  Q 75.52 11.80 91.17 16.13
  Q 94.11 16.95 94.17 18.90
  Z
  M 49.42 119.44
  Q 70.23 129.95 90.93 123.06
  Q 108.59 117.19 118.42 102.89
  Q 134.97 78.81 124.21 50.57
  Q 123.58 48.92 121.89 49.41
  Q 115.31 51.30 108.53 52.43
  Q 99.36 53.95 90.56 54.65
  Q 82.58 55.29 64.95 54.95
  Q 55.80 54.78 46.77 53.47
  Q 36.78 52.02 28.84 50.09
  Q 27.67 49.81 26.66 49.39
  A 1.06 1.05 -66.7 0 0 25.29 49.94
  Q 20.65 60.55 20.93 73.40
  Q 21.02 77.26 21.40 79.66
  Q 25.18 103.77 46.07 117.52
  Q 47.54 118.49 49.42 119.44
  Z"
/>
<path fill="#ffffff" d="
  M 94.17 18.90
  L 103.47 23.40
  Q 104.04 23.48 104.10 24.09
  Q 104.15 24.52 103.92 24.89
  Q 103.75 25.17 103.64 25.47
  A 0.82 0.81 -61.5 0 0 103.91 26.39
  L 107.07 28.82
  A 0.68 0.68 0.0 0 0 108.10 28.57
  Q 108.62 27.45 109.68 27.25
  L 118.52 35.60
  Q 117.58 39.10 115.26 39.53
  Q 101.38 42.16 92.10 42.99
  Q 86.78 43.46 81.05 43.67
  Q 75.42 43.87 69.92 43.66
  Q 65.54 43.49 60.65 43.29
  C 51.35 42.92 41.84 41.16 32.79 39.44
  Q 32.04 39.30 32.45 38.65
  Q 34.28 35.74 36.59 33.59
  Q 60.02 11.75 91.56 20.55
  Q 92.05 20.68 92.49 20.44
  Q 93.48 19.89 94.17 18.90
  Z"
/>
<path fill="#000000" d="
  M 109.68 27.25
  Q 108.62 27.45 108.10 28.57
  A 0.68 0.68 0.0 0 1 107.07 28.82
  L 103.91 26.39
  A 0.82 0.81 -61.5 0 1 103.64 25.47
  Q 103.75 25.17 103.92 24.89
  Q 104.15 24.52 104.10 24.09
  Q 104.04 23.48 103.47 23.40
  L 105.22 22.83
  Q 105.71 22.67 106.12 22.99
  C 107.54 24.07 110.33 25.06 109.68 27.25
  Z"
/>
<path fill="#ffffff" d="
  M 49.42 119.44
  Q 47.54 118.49 46.07 117.52
  Q 25.18 103.77 21.40 79.66
  Q 21.02 77.26 20.93 73.40
  Q 20.65 60.55 25.29 49.94
  A 1.06 1.05 -66.7 0 1 26.66 49.39
  Q 27.67 49.81 28.84 50.09
  Q 36.78 52.02 46.77 53.47
  Q 55.80 54.78 64.95 54.95
  Q 82.58 55.29 90.56 54.65
  Q 99.36 53.95 108.53 52.43
  Q 115.31 51.30 121.89 49.41
  Q 123.58 48.92 124.21 50.57
  Q 134.97 78.81 118.42 102.89
  Q 108.59 117.19 90.93 123.06
  Q 70.23 129.95 49.42 119.44
  Z
  M 47.85 57.91
  C 44.67 58.18 45.14 66.88 39.33 67.27
  Q 37.01 67.42 34.79 67.51
  Q 32.14 67.62 33.80 69.70
  Q 35.33 71.61 38.75 70.73
  Q 46.06 68.85 48.40 61.17
  Q 48.77 59.96 48.71 58.66
  A 0.79 0.79 0.0 0 0 47.85 57.91
  Z
  M 107.16 66.54
  Q 103.55 64.16 102.38 59.04
  Q 102.13 57.92 100.97 57.98
  L 100.61 58.00
  A 1.01 1.01 0.0 0 0 99.67 59.17
  Q 101.25 68.59 109.83 70.74
  Q 112.56 71.42 114.66 69.97
  Q 115.15 69.63 115.27 69.06
  Q 115.47 68.10 114.87 67.56
  Q 114.34 67.09 113.62 67.24
  Q 109.49 68.08 107.16 66.54
  Z
  M 49.37 69.96
  C 44.97 71.32 42.91 74.39 45.30 78.81
  A 0.61 0.60 -31.5 0 0 46.18 79.02
  Q 49.68 76.57 53.26 78.70
  A 1.41 1.41 0.0 0 0 55.35 77.84
  Q 56.92 71.79 50.40 69.94
  Q 49.88 69.80 49.37 69.96
  Z
  M 97.69 69.93
  Q 91.66 71.93 93.44 78.33
  Q 93.77 79.51 94.81 78.86
  C 96.74 77.63 99.59 77.17 101.57 78.53
  Q 102.15 78.93 102.84 79.00
  Q 103.42 79.06 103.55 78.50
  Q 105.22 71.40 98.76 69.88
  A 1.97 1.87 40.9 0 0 97.69 69.93
  Z
  M 49.00 83.01
  C 48.72 82.58 48.81 82.10 48.67 81.68
  A 0.84 0.84 0.0 0 0 47.13 81.56
  Q 45.82 84.04 46.19 86.91
  A 1.39 1.38 64.5 0 0 48.52 87.74
  Q 50.71 85.67 49.00 83.01
  Z
  M 79.01 97.27
  Q 81.95 98.76 84.16 101.42
  A 1.39 1.38 77.1 0 0 84.89 101.88
  Q 87.14 102.43 86.23 99.73
  A 1.95 1.85 15.4 0 0 85.82 99.05
  C 80.50 93.44 74.55 91.53 67.63 96.33
  Q 65.36 97.91 63.80 99.85
  A 1.03 1.01 61.6 0 0 63.59 100.58
  Q 63.67 101.26 64.10 101.53
  Q 65.40 102.36 66.42 101.21
  C 69.52 97.68 74.31 94.88 79.01 97.27
  Z"
/>
<path fill="#000000" d="
  M 39.33 67.27
  C 45.14 66.88 44.67 58.18 47.85 57.91
  A 0.79 0.79 0.0 0 1 48.71 58.66
  Q 48.77 59.96 48.40 61.17
  Q 46.06 68.85 38.75 70.73
  Q 35.33 71.61 33.80 69.70
  Q 32.14 67.62 34.79 67.51
  Q 37.01 67.42 39.33 67.27
  Z"
/>
<path fill="#000000" d="
  M 107.16 66.54
  Q 109.49 68.08 113.62 67.24
  Q 114.34 67.09 114.87 67.56
  Q 115.47 68.10 115.27 69.06
  Q 115.15 69.63 114.66 69.97
  Q 112.56 71.42 109.83 70.74
  Q 101.25 68.59 99.67 59.17
  A 1.01 1.01 0.0 0 1 100.61 58.00
  L 100.97 57.98
  Q 102.13 57.92 102.38 59.04
  Q 103.55 64.16 107.16 66.54
  Z"
/>
<path fill="#000000" d="
  M 45.30 78.81
  C 42.91 74.39 44.97 71.32 49.37 69.96
  Q 49.88 69.80 50.40 69.94
  Q 56.92 71.79 55.35 77.84
  A 1.41 1.41 0.0 0 1 53.26 78.70
  Q 49.68 76.57 46.18 79.02
  A 0.61 0.60 -31.5 0 1 45.30 78.81
  Z"
/>
<path fill="#000000" d="
  M 97.69 69.93
  A 1.97 1.87 40.9 0 1 98.76 69.88
  Q 105.22 71.40 103.55 78.50
  Q 103.42 79.06 102.84 79.00
  Q 102.15 78.93 101.57 78.53
  C 99.59 77.17 96.74 77.63 94.81 78.86
  Q 93.77 79.51 93.44 78.33
  Q 91.66 71.93 97.69 69.93
  Z"
/>
<path fill="#000000" d="
  M 49.00 83.01
  Q 50.71 85.67 48.52 87.74
  A 1.39 1.38 64.5 0 1 46.19 86.91
  Q 45.82 84.04 47.13 81.56
  A 0.84 0.84 0.0 0 1 48.67 81.68
  C 48.81 82.10 48.72 82.58 49.00 83.01
  Z"
/>
<path fill="#000000" d="
  M 79.01 97.27
  C 74.31 94.88 69.52 97.68 66.42 101.21
  Q 65.40 102.36 64.10 101.53
  Q 63.67 101.26 63.59 100.58
  A 1.03 1.01 61.6 0 1 63.80 99.85
  Q 65.36 97.91 67.63 96.33
  C 74.55 91.53 80.50 93.44 85.82 99.05
  A 1.95 1.85 15.4 0 1 86.23 99.73
  Q 87.14 102.43 84.89 101.88
  A 1.39 1.38 77.1 0 1 84.16 101.42
  Q 81.95 98.76 79.01 97.27
  Z"
/>
<path fill="#404040" fill-opacity="0.251" d="
  M 105.63 120.93
  L 105.56 122.00
  Q 105.53 122.54 106.08 122.56
  C 109.60 122.70 116.78 124.11 119.33 127.28
  Q 119.71 127.75 119.32 128.21
  Q 117.94 129.80 116.01 130.49
  Q 110.19 132.59 103.50 133.42
  Q 81.98 136.10 60.06 134.83
  Q 54.23 134.49 47.01 133.57
  C 42.76 133.03 33.59 131.77 30.96 128.61
  A 1.70 1.70 0.0 0 1 31.57 125.97
  Q 37.92 123.10 45.18 121.96
  Q 56.29 128.31 70.13 129.71
  Q 74.33 130.80 78.72 129.70
  Q 93.04 128.63 105.63 120.93
  Z"
/>
<path fill="#525458" fill-opacity="0.941" d="
  M 70.13 129.71
  L 78.72 129.70
  Q 74.33 130.80 70.13 129.71
  Z"
/>
</svg>
